<?xml version="1.0" encoding="UTF-8" standalone="no"?>
<svg xmlns:xlink="http://www.w3.org/1999/xlink" height="40.0px" width="40.0px" xmlns="http://www.w3.org/2000/svg">
  <g transform="matrix(1.0, 0.0, 0.0, 1.0, 20.0, 20.0)">
    <path d="M-4.5 -5.7 L-4.5 -5.8 -4.5 -5.95 -1.05 -16.7 -0.1 -20.0 0.5 -18.4 0.8 -17.15 1.9 -13.55 1.9 -13.5 1.8 -13.45 2.6 -10.6 2.65 -10.55 2.55 -7.45 Q2.45 -5.35 2.95 -4.2 L4.4 -5.5 4.5 -5.55 4.65 -5.15 4.65 -5.05 Q4.6 -4.8 4.7 -4.75 L4.8 -4.75 4.8 -4.7 3.55 -4.1 3.55 -4.0 3.5 -4.0 2.15 -3.2 2.1 -3.25 1.15 -4.35 1.1 -4.4 0.8 -8.6 0.95 -8.5 1.0 -11.2 Q0.95 -13.15 1.2 -14.45 L1.15 -14.45 0.8 -15.85 0.8 -15.9 Q0.6 -17.55 -0.1 -19.05 L-0.1 -19.0 -0.7 -17.1 -0.7 -17.0 -0.7 -16.9 -0.75 -16.85 -0.85 -16.5 -2.25 -12.0 Q-2.5 -10.9 -2.2 -11.45 L-2.0 -11.8 -1.95 -11.95 -1.75 -9.5 -1.65 -5.95 Q-1.55 -4.15 -2.55 -3.6 L-2.65 -3.6 Q-3.75 -3.65 -4.05 -4.75 L-4.0 -5.5 -4.0 -5.9 Q-4.2 -6.4 -4.5 -5.7 M-2.3 -8.6 L-2.4 -9.95 -2.45 -9.95 -3.7 -6.0 -3.7 -5.95 Q-3.55 -4.9 -2.55 -4.25 -2.2 -4.25 -2.25 -4.65 L-2.3 -8.6" fill="#7f1e19" fill-opacity="0.9764706" fill-rule="evenodd" stroke="none"/>
    <path d="M-0.85 -16.5 L-0.75 -16.85 -0.7 -16.9 -0.7 -17.0 -0.7 -17.1 -0.1 -19.0 -0.1 -19.05 Q0.6 -17.55 0.8 -15.9 L0.8 -15.85 0.8 -15.8 0.75 -15.8 0.75 -11.55 0.8 -8.6 1.1 -4.4 1.15 -4.35 2.1 -3.25 2.15 -3.2 3.5 -4.0 3.55 -4.0 4.4 -4.45 4.4 -4.5 13.8 -4.4 13.85 -4.4 11.85 -4.2 4.2 -4.0 4.15 -3.95 3.95 -3.7 Q4.2 -4.3 3.8 -3.95 3.0 -3.3 1.9 -2.95 L2.1 -2.7 2.15 -2.65 0.35 -3.15 -1.65 -3.05 -1.65 -3.15 -1.65 -3.3 -1.45 -3.75 -1.4 -3.75 -1.4 -3.7 -1.5 -3.45 -0.7 -3.5 -0.35 -3.65 0.95 -3.35 Q1.35 -3.35 1.05 -4.1 L0.5 -5.35 0.5 -4.8 0.45 -4.6 Q0.2 -3.9 -0.55 -4.1 L-0.65 -4.1 Q-0.9 -5.6 -0.8 -7.15 L-0.85 -8.05 -1.1 -6.2 Q-0.95 -10.25 -0.95 -14.35 -0.95 -14.95 -1.25 -15.05 L-0.85 -16.5" fill="#b74745" fill-rule="evenodd" stroke="none"/>
    <path d="M0.8 -15.85 L1.15 -14.45 1.2 -14.45 Q0.95 -13.15 1.0 -11.2 L0.95 -8.5 0.8 -8.6 0.75 -11.55 0.75 -15.8 0.8 -15.8 0.8 -15.85" fill="#a72320" fill-rule="evenodd" stroke="none"/>
    <path d="M1.9 -13.55 L4.45 -5.6 4.5 -5.55 4.4 -5.5 2.95 -4.2 Q2.45 -5.35 2.55 -7.45 L2.65 -10.55 2.6 -10.6 1.8 -13.45 1.9 -13.5 1.9 -13.55" fill="#671814" fill-opacity="0.9647059" fill-rule="evenodd" stroke="none"/>
    <path d="M4.65 -5.05 Q4.9 -4.85 5.35 -4.75 L4.8 -4.75 4.7 -4.75 Q4.6 -4.8 4.65 -5.05 M8.2 -4.75 L19.85 -4.75 16.95 -4.75 16.85 -4.75 8.2 -4.75" fill="#453330" fill-opacity="0.3882353" fill-rule="evenodd" stroke="none"/>
    <path d="M5.35 -4.75 L6.2 -4.7 8.2 -4.75 16.85 -4.75 16.95 -4.75 19.4 -4.6 19.35 -4.5 19.2 -4.35 19.15 -4.4 18.35 -4.5 18.35 -4.4 18.25 -4.4 17.85 -4.4 15.9 -4.3 15.55 -4.4 14.2 -4.4 14.05 -4.4 Q14.8 -4.25 14.0 -4.0 14.65 -3.7 13.85 -3.5 L12.8 -3.2 10.85 -2.55 6.85 -1.15 4.1 -0.85 Q4.4 0.15 5.0 0.85 L5.0 0.95 4.75 0.75 3.8 -0.85 3.0 -2.1 2.75 -2.15 Q1.35 -3.0 -0.5 -3.05 L-1.25 -2.8 Q-1.55 -2.6 -1.95 -2.8 -1.75 -2.85 -1.7 -3.05 L-1.65 -3.05 0.35 -3.15 2.15 -2.65 Q3.2 -1.9 3.65 -3.3 L3.7 -3.3 3.7 -3.2 3.65 -3.15 Q3.75 -2.4 4.3 -1.75 L4.35 -1.7 6.75 -1.8 8.85 -2.7 12.35 -3.85 11.35 -4.1 7.7 -4.05 4.2 -4.0 11.85 -4.2 13.85 -4.4 13.8 -4.4 4.4 -4.5 4.4 -4.45 3.55 -4.0 3.55 -4.1 4.8 -4.7 4.8 -4.75 5.35 -4.75" fill="#a1312d" fill-rule="evenodd" stroke="none"/>
    <path d="M3.7 -3.3 L3.7 -3.35 3.95 -3.6 3.95 -3.7 4.15 -3.95 4.2 -4.0 7.7 -4.05 11.35 -4.1 12.35 -3.85 8.85 -2.7 6.75 -1.8 4.35 -1.7 4.3 -1.75 Q3.75 -2.4 3.65 -3.15 L3.7 -3.2 3.7 -3.3 M5.0 -3.55 L5.0 -3.45 4.4 -2.55 4.4 -2.35 Q4.55 -2.15 4.7 -2.2 7.65 -2.75 10.1 -3.85 L9.35 -4.0 5.0 -3.55" fill="#801b17" fill-rule="evenodd" stroke="none"/>
    <path d="M3.7 -3.3 L3.65 -3.3 Q3.2 -1.9 2.15 -2.65 L2.1 -2.7 1.9 -2.95 Q3.0 -3.3 3.8 -3.95 4.2 -4.3 3.95 -3.7 L3.95 -3.6 3.7 -3.35 3.7 -3.3" fill="#de6361" fill-rule="evenodd" stroke="none"/>
    <path d="M5.0 -3.55 L9.35 -4.0 10.1 -3.85 Q7.65 -2.75 4.7 -2.2 4.55 -2.15 4.4 -2.35 L4.4 -2.55 5.0 -3.45 5.0 -3.55 M-2.3 -8.6 L-2.25 -4.65 Q-2.2 -4.25 -2.55 -4.25 -3.55 -4.9 -3.7 -5.95 L-3.7 -6.0 -2.45 -9.95 -2.4 -9.95 -2.3 -8.6" fill="#661612" fill-rule="evenodd" stroke="none"/>
    <path d="M-1.1 -6.2 L-0.85 -8.05 -0.8 -7.15 Q-0.9 -5.6 -0.65 -4.1 L-0.55 -4.1 Q0.2 -3.9 0.45 -4.6 L0.5 -4.8 0.5 -5.35 1.05 -4.1 Q1.35 -3.35 0.95 -3.35 L-0.35 -3.65 -0.7 -3.5 -1.5 -3.45 -1.4 -3.7 -1.4 -3.75 -1.4 -3.85 -1.4 -4.0 -1.1 -6.1 -1.1 -6.2" fill="#c65855" fill-rule="evenodd" stroke="none"/>
    <path d="M-0.5 -3.05 Q1.35 -3.0 2.75 -2.15 L3.0 -2.1 3.8 -0.85 3.5 -1.1 Q4.15 -0.1 4.15 1.15 4.15 3.25 3.8 4.0 L3.7 4.05 Q2.55 5.45 1.2 6.05 L1.15 6.0 -1.5 6.05 -1.5 6.0 Q-4.65 5.0 -4.55 0.85 -3.9 -1.55 -1.35 -2.45 L0.15 -2.9 -0.05 -2.9 Q-0.45 -2.85 -0.5 -3.05" fill="#7d1c1f" fill-rule="evenodd" stroke="none"/>
    <path d="M5.0 0.95 L5.0 0.85 Q4.4 0.15 4.1 -0.85 L6.85 -1.15 10.85 -2.55 12.8 -3.2 13.85 -3.5 Q14.65 -3.7 14.0 -4.0 14.8 -4.25 14.05 -4.4 L14.2 -4.4 15.55 -4.4 15.9 -4.3 17.85 -4.4 15.9 -3.85 15.85 -3.85 Q10.6 -2.0 5.0 -0.6 L4.95 -0.6 4.35 -0.5 5.2 0.5 5.25 0.55 Q10.45 -1.3 15.8 -2.95 16.1 -3.05 16.2 -3.2 17.8 -3.55 18.8 -4.15 L18.95 -4.4 18.35 -4.4 18.35 -4.5 19.15 -4.4 19.2 -4.35 19.15 -4.3 18.55 -3.85 18.05 -3.7 Q13.0 -1.65 7.65 0.1 6.65 0.4 5.85 0.95 5.25 1.3 5.0 0.95" fill="#ca403f" fill-rule="evenodd" stroke="none"/>
    <path d="M5.0 -0.6 L5.0 -0.55 4.55 -0.35 Q5.3 0.35 6.55 -0.15 L8.95 -1.0 16.2 -3.2 Q16.1 -3.05 15.8 -2.95 10.45 -1.3 5.25 0.55 L5.2 0.5 4.35 -0.5 4.95 -0.6 5.0 -0.6" fill="#db5754" fill-rule="evenodd" stroke="none"/>
    <path d="M17.85 -4.4 L18.25 -4.4 18.35 -4.4 18.95 -4.4 18.8 -4.15 Q17.8 -3.55 16.2 -3.2 L8.95 -1.0 6.55 -0.15 Q5.3 0.35 4.55 -0.35 L5.0 -0.55 5.0 -0.6 Q10.6 -2.0 15.85 -3.85 L15.9 -3.85 17.85 -4.4 M4.8 -0.35 L4.95 -0.15 7.1 -0.5 Q12.65 -2.1 17.85 -4.0 L15.85 -3.5 4.8 -0.35" fill="#e96461" fill-rule="evenodd" stroke="none"/>
    <path d="M4.8 -0.35 L15.85 -3.5 17.85 -4.0 Q12.65 -2.1 7.1 -0.5 L4.95 -0.15 4.8 -0.35" fill="#fe8885" fill-rule="evenodd" stroke="none"/>
    <path d="M-7.95 4.8 L-7.95 4.7 Q-7.8 4.45 -8.2 4.3 L-6.15 3.55 Q-5.5 3.35 -5.35 2.7 -5.45 2.15 -5.8 1.85 L-6.6 1.35 -8.55 0.65 -12.5 -0.5 Q-15.0 -1.15 -17.05 -2.75 L-10.95 -0.7 -8.75 -0.05 Q-6.8 0.45 -5.25 1.65 L-4.35 -0.6 Q-4.05 -1.15 -4.5 -1.15 L-4.75 -1.0 -5.05 -0.85 -8.35 -1.3 -12.2 -2.6 -14.7 -3.4 Q-15.55 -3.65 -15.7 -4.1 L-15.8 -4.1 -19.3 -4.5 -19.3 -4.4 -19.3 -4.35 -19.4 -4.35 -19.55 -4.5 -19.5 -4.5 -19.45 -4.6 -19.45 -4.65 Q-18.8 -4.5 -18.1 -4.65 L-18.0 -4.65 -14.1 -4.55 -10.7 -4.5 -10.8 -4.5 -11.2 -4.4 -11.9 -4.3 -12.0 -4.35 Q-11.65 -4.05 -12.5 -4.2 -12.15 -3.9 -11.4 -3.9 L-8.4 -3.75 -11.5 -3.7 -9.85 -2.85 -7.25 -2.0 -5.35 -1.7 Q-4.75 -1.7 -4.4 -2.1 -4.1 -2.45 -4.4 -3.05 L-4.35 -3.05 Q-3.95 -2.05 -3.05 -2.1 L-2.9 -2.2 -4.05 -4.0 Q-4.45 -4.7 -5.2 -4.5 L-5.25 -4.5 -5.4 -4.5 -5.4 -4.6 -5.4 -4.65 -4.8 -4.7 -4.8 -4.75 -4.75 -4.75 -4.7 -4.8 -4.7 -4.9 -4.7 -5.0 -4.7 -5.05 -4.7 -5.15 -4.5 -5.65 -4.5 -5.7 Q-4.2 -6.4 -4.0 -5.9 L-4.0 -5.5 -4.05 -4.75 Q-3.75 -3.65 -2.65 -3.6 L-2.55 -3.6 Q-1.55 -4.15 -1.65 -5.95 L-1.75 -9.5 -1.95 -11.95 -2.0 -11.8 -2.2 -11.45 Q-2.5 -10.9 -2.25 -12.0 L-0.85 -16.5 -1.25 -15.05 Q-0.95 -14.95 -0.95 -14.35 -0.95 -10.25 -1.1 -6.2 L-1.1 -6.1 -1.4 -4.0 -1.4 -3.85 -1.4 -3.75 -1.45 -3.75 -1.65 -3.3 -1.65 -3.15 -1.65 -3.05 -1.7 -3.05 Q-1.75 -2.85 -1.95 -2.8 -1.55 -2.6 -1.25 -2.8 L-0.5 -3.05 Q-0.45 -2.85 -0.05 -2.9 L0.15 -2.9 -1.35 -2.45 Q-3.9 -1.55 -4.55 0.85 -4.65 5.0 -1.5 6.0 L-1.5 6.05 1.15 6.0 1.2 6.05 Q2.55 5.45 3.7 4.05 L3.8 4.0 Q4.15 3.25 4.15 1.15 4.15 -0.1 3.5 -1.1 L3.8 -0.85 4.75 0.75 5.0 0.95 Q5.25 1.3 5.85 0.95 6.65 0.4 7.65 0.1 13.0 -1.65 18.05 -3.7 L18.55 -3.85 16.6 -2.35 Q15.6 -1.55 14.5 -1.2 L9.95 0.45 7.4 1.2 Q6.0 1.6 5.4 2.8 L5.9 3.3 Q6.85 3.7 7.25 4.65 L6.6 4.5 Q5.85 4.05 5.2 4.25 6.2 4.6 6.2 5.6 5.95 5.6 6.0 5.7 6.35 6.8 7.15 7.85 L8.75 10.2 Q10.1 12.25 10.7 15.35 L10.6 15.1 Q10.35 14.8 10.1 14.75 10.25 14.4 9.95 14.2 L9.9 14.15 8.45 12.1 6.5 9.5 Q6.1 9.0 6.2 8.7 5.45 8.0 5.0 7.1 4.7 6.45 4.2 6.45 L4.15 6.5 5.6 8.95 7.25 11.0 7.25 11.1 8.35 12.8 8.35 12.85 Q9.15 13.5 9.35 14.35 L9.4 14.4 Q10.05 14.85 10.25 15.5 L10.25 15.55 11.35 16.85 11.95 19.05 Q11.05 18.55 10.85 17.75 9.6 16.8 8.7 15.45 L2.95 7.1 2.8 7.1 Q1.8 7.1 1.15 7.75 L0.15 10.0 0.1 10.1 Q-0.35 10.25 -0.85 10.7 L-0.85 10.65 Q-0.25 9.85 -0.85 10.05 L-0.7 9.1 Q-0.45 7.8 -1.2 7.5 -1.6 7.5 -1.8 7.75 L-6.35 14.2 Q-6.05 14.3 -5.5 13.9 L-5.4 14.05 -5.45 14.1 -8.2 16.45 -8.2 16.55 -8.25 16.55 -10.05 17.9 -10.05 17.8 -9.75 17.55 -9.7 17.5 -4.0 9.05 -2.85 7.5 -2.65 7.3 -2.6 7.3 -2.1 6.75 -2.1 6.55 -2.7 6.1 Q-2.9 5.9 -3.15 5.8 L-3.65 5.85 -4.35 6.7 -9.85 15.35 Q-10.2 16.0 -10.4 15.65 -9.65 13.35 -9.4 11.15 L-9.45 11.25 -9.55 11.35 -9.55 11.25 -9.55 11.1 -8.2 7.35 Q-8.9 9.85 -9.25 12.55 L-9.25 12.65 -5.0 5.95 Q-4.7 5.45 -4.8 4.85 -4.8 4.7 -4.95 4.7 -5.2 4.4 -5.65 4.3 L-5.7 4.3 Q-7.15 4.4 -7.5 5.65 L-7.5 5.6 -7.9 5.7 Q-7.8 5.25 -7.95 4.8 M6.85 4.3 L6.35 3.75 5.8 3.35 Q5.1 2.75 4.5 3.1 L4.5 3.15 Q5.4 4.2 6.85 4.3 M2.8 5.9 L2.85 6.1 4.1 8.15 9.95 16.45 10.0 16.4 5.1 8.85 3.8 6.65 Q3.45 5.95 2.8 5.9 M0.6 7.4 Q0.95 6.85 0.15 6.6 -0.2 6.5 -0.55 6.95 -0.1 7.9 -0.2 8.45 L0.6 7.4 M-4.85 3.35 L-5.0 3.2 -7.65 4.3 -7.6 4.5 Q-7.35 4.85 -6.7 4.5 -6.1 4.2 -5.4 4.15 -4.4 4.1 -4.8 3.4 L-4.85 3.35" fill="#a12523" fill-opacity="0.99607843" fill-rule="evenodd" stroke="none"/>
    <path d="M19.85 -4.75 L19.95 -4.75 20.0 -4.7 20.0 -4.65 15.65 -1.3 7.7 4.85 9.0 8.75 12.35 19.6 Q10.1 18.15 8.0 16.55 L-0.2 10.55 -0.25 10.6 -8.25 16.8 -8.25 16.7 -8.2 16.6 -8.2 16.55 -8.2 16.45 -5.45 14.1 -5.4 14.05 -4.8 13.55 -4.8 13.5 -0.95 10.7 -0.85 10.7 Q-0.35 10.25 0.1 10.1 L0.15 10.0 1.15 7.75 Q1.8 7.1 2.8 7.1 L2.95 7.1 8.7 15.45 Q9.6 16.8 10.85 17.75 11.05 18.55 11.95 19.05 L11.35 16.85 10.25 15.55 10.25 15.5 Q10.05 14.85 9.4 14.4 L9.35 14.35 Q9.15 13.5 8.35 12.85 L8.35 12.8 7.25 11.1 7.25 11.0 5.6 8.95 4.15 6.5 4.2 6.45 Q4.7 6.45 5.0 7.1 5.45 8.0 6.2 8.7 6.1 9.0 6.5 9.5 L8.45 12.1 9.9 14.15 9.95 14.2 Q10.25 14.4 10.1 14.75 10.35 14.8 10.6 15.1 L10.7 15.35 Q10.1 12.25 8.75 10.2 L7.15 7.85 Q6.35 6.8 6.0 5.7 5.95 5.6 6.2 5.6 6.2 4.6 5.2 4.25 5.85 4.05 6.6 4.5 L7.25 4.65 Q6.85 3.7 5.9 3.3 L5.4 2.8 Q6.0 1.6 7.4 1.2 L9.95 0.45 14.5 -1.2 Q15.6 -1.55 16.6 -2.35 L18.55 -3.85 19.15 -4.3 19.2 -4.35 19.35 -4.5 19.4 -4.6 16.95 -4.75 19.85 -4.75 M0.75 10.15 L0.8 10.3 5.8 14.3 4.05 12.55 2.15 10.9 Q1.5 10.3 0.75 10.15" fill="#781816" fill-opacity="0.9764706" fill-rule="evenodd" stroke="none"/>
    <path d="M6.85 4.3 Q5.4 4.2 4.5 3.15 L4.5 3.1 Q5.1 2.75 5.8 3.35 L6.35 3.75 6.85 4.3" fill="#d25955" fill-rule="evenodd" stroke="none"/>
    <path d="M2.8 5.9 Q3.45 5.95 3.8 6.65 L5.1 8.85 10.0 16.4 9.95 16.45 4.1 8.15 2.85 6.1 2.8 5.9" fill="#af4441" fill-rule="evenodd" stroke="none"/>
    <path d="M0.6 7.4 L-0.2 8.45 Q-0.1 7.9 -0.55 6.95 -0.2 6.5 0.15 6.6 0.95 6.85 0.6 7.4" fill="#b9403f" fill-rule="evenodd" stroke="none"/>
    <path d="M0.75 10.15 Q1.5 10.3 2.15 10.9 L4.05 12.55 5.8 14.3 0.8 10.3 0.75 10.15" fill="#8e3030" fill-rule="evenodd" stroke="none"/>
    <path d="M-16.4 -3.75 L-16.5 -3.75 -17.1 -3.75 Q-13.45 -2.15 -9.4 -0.8 -13.8 -2.1 -17.85 -3.85 L-16.4 -3.8 -16.4 -3.75 M-6.45 0.1 L-5.4 0.35 -5.15 0.2 -5.05 0.0 Q-5.05 0.35 -5.35 0.75 L-5.35 0.85 -6.45 0.1 M-5.05 -0.3 L-5.5 -0.5 -5.35 -0.5 -5.15 -0.45 -5.05 -0.3" fill="#e3605d" fill-rule="evenodd" stroke="none"/>
    <path d="M-9.4 -0.8 Q-13.45 -2.15 -17.1 -3.75 L-16.5 -3.75 -16.4 -3.75 Q-11.15 -1.95 -5.55 -0.5 L-5.5 -0.5 -5.05 -0.3 -5.05 0.0 -5.15 0.2 -5.4 0.35 -6.45 0.1 -6.7 0.0 -9.4 -0.8 M-10.7 -1.7 L-10.75 -1.75 -16.4 -3.6 -11.5 -1.75 -11.4 -1.7 Q-8.55 -0.5 -5.35 -0.05 L-5.35 -0.1 Q-5.55 -0.55 -6.45 -0.7 L-10.7 -1.7" fill="#f4706c" fill-rule="evenodd" stroke="none"/>
    <path d="M-16.4 -3.75 L-16.4 -3.8 -17.85 -3.85 Q-13.8 -2.1 -9.4 -0.8 L-6.7 0.0 -6.45 0.1 -5.35 0.85 -5.35 0.75 Q-5.05 0.35 -5.05 0.0 L-5.05 -0.3 -5.15 -0.45 -5.35 -0.5 -5.5 -0.5 -5.55 -0.5 Q-11.15 -1.95 -16.4 -3.75 M-19.3 -4.35 L-19.3 -4.4 -19.3 -4.5 -15.8 -4.1 -15.7 -4.1 Q-15.55 -3.65 -14.7 -3.4 L-12.2 -2.6 -8.35 -1.3 -5.05 -0.85 -4.75 -1.0 -4.5 -1.15 Q-4.05 -1.15 -4.35 -0.6 L-5.25 1.65 Q-6.8 0.45 -8.75 -0.05 L-10.95 -0.7 -17.05 -2.75 -17.05 -2.8 -19.3 -4.35" fill="#cd4342" fill-rule="evenodd" stroke="none"/>
    <path d="M-19.85 -4.5 L-19.9 -4.5 -19.9 -4.6 -19.9 -4.75 -5.85 -4.8 -4.7 -4.8 -4.75 -4.75 -4.8 -4.75 -13.25 -4.65 -18.0 -4.65 -18.1 -4.65 Q-18.8 -4.5 -19.45 -4.65 L-19.45 -4.6 -19.5 -4.6 -19.85 -4.65 -19.85 -4.6 -19.85 -4.5" fill="#853326" fill-opacity="0.99607843" fill-rule="evenodd" stroke="none"/>
    <path d="M-8.2 4.3 L-11.75 1.65 -19.85 -4.5 -19.85 -4.6 -19.85 -4.65 -19.5 -4.6 -19.45 -4.6 -19.5 -4.5 -19.55 -4.5 -19.4 -4.35 -19.3 -4.35 -17.05 -2.8 -17.05 -2.75 Q-15.0 -1.15 -12.5 -0.5 L-8.55 0.65 -6.6 1.35 -5.8 1.85 Q-5.45 2.15 -5.35 2.7 -5.5 3.35 -6.15 3.55 L-8.2 4.3" fill="#771a16" fill-opacity="0.98039216" fill-rule="evenodd" stroke="none"/>
    <path d="M-19.9 -4.5 L-20.0 -4.5 -20.0 -4.6 -20.0 -4.8 -5.95 -4.85 -4.7 -5.0 -4.7 -4.9 -4.7 -4.8 -5.85 -4.8 -19.9 -4.75 -19.9 -4.6 -19.9 -4.5" fill="#3f2d29" fill-opacity="0.3647059" fill-rule="evenodd" stroke="none"/>
    <path d="M-18.0 -4.65 L-13.25 -4.65 -4.8 -4.75 -4.8 -4.7 -5.4 -4.65 -5.4 -4.6 -5.4 -4.5 -5.5 -4.5 -11.2 -4.4 -10.8 -4.5 -10.7 -4.5 -14.1 -4.55 -18.0 -4.65" fill="#7c241e" fill-rule="evenodd" stroke="none"/>
    <path d="M-11.2 -4.4 L-5.5 -4.5 -5.4 -4.5 -5.25 -4.5 -5.2 -4.5 -5.2 -4.45 -5.7 -4.1 Q-5.55 -3.7 -5.05 -3.65 L-5.05 -3.6 -5.1 -3.6 -8.4 -3.75 -11.4 -3.9 Q-12.15 -3.9 -12.5 -4.2 -11.65 -4.05 -12.0 -4.35 L-11.9 -4.3 -11.2 -4.4" fill="#ab4441" fill-rule="evenodd" stroke="none"/>
    <path d="M-11.4 -1.7 L-11.5 -1.75 -16.4 -3.6 -10.75 -1.75 -10.7 -1.7 -10.8 -1.75 -11.95 -2.05 Q-11.75 -1.85 -11.4 -1.75 L-11.4 -1.7" fill="#ff8d89" fill-rule="evenodd" stroke="none"/>
    <path d="M-10.7 -1.7 L-6.45 -0.7 Q-5.55 -0.55 -5.35 -0.1 L-5.35 -0.05 Q-8.55 -0.5 -11.4 -1.7 L-11.4 -1.75 Q-11.75 -1.85 -11.95 -2.05 L-10.8 -1.75 -10.7 -1.7" fill="#ff9794" fill-rule="evenodd" stroke="none"/>
    <path d="M-5.05 -3.6 L-5.05 -3.65 Q-5.55 -3.7 -5.7 -4.1 L-5.2 -4.45 -5.2 -4.5 Q-4.45 -4.7 -4.05 -4.0 L-2.9 -2.2 -3.05 -2.1 Q-3.95 -2.05 -4.35 -3.05 L-4.4 -3.05 -4.45 -3.05 Q-4.55 -3.5 -5.05 -3.6" fill="#dd6863" fill-rule="evenodd" stroke="none"/>
    <path d="M-4.4 -3.05 Q-4.1 -2.45 -4.4 -2.1 -4.75 -1.7 -5.35 -1.7 L-7.25 -2.0 -9.85 -2.85 -11.5 -3.7 -8.4 -3.75 -5.1 -3.6 -5.05 -3.6 Q-4.55 -3.5 -4.45 -3.05 L-4.4 -3.05" fill="#7a1a15" fill-rule="evenodd" stroke="none"/>
    <path d="M-9.55 11.35 L-9.45 11.25 -9.4 11.15 Q-9.65 13.35 -10.4 15.65 -10.2 16.0 -9.85 15.35 L-4.35 6.7 -3.65 5.85 -3.15 5.8 Q-2.9 5.9 -2.7 6.1 L-2.65 6.2 -2.45 6.55 Q-2.35 6.95 -2.6 7.3 L-2.65 7.3 -2.85 7.5 -4.05 8.85 -9.7 17.35 -9.7 17.4 -9.7 17.5 -9.75 17.55 -10.05 17.8 -10.05 17.9 -11.45 19.1 -12.05 19.2 -11.55 17.8 -11.55 17.75 -9.6 11.35 -9.55 11.35 M-6.8 10.95 L-6.85 10.95 -10.35 16.4 -10.35 16.45 -10.35 16.55 -10.4 16.55 -11.5 18.15 Q-11.35 18.85 -10.9 18.2 L-5.15 9.75 -3.3 6.5 Q-3.2 6.35 -3.35 6.35 -4.45 7.0 -5.3 8.4 L-6.8 10.95" fill="#cf4947" fill-rule="evenodd" stroke="none"/>
    <path d="M-11.55 17.2 L-11.55 17.1 -11.55 16.95 -8.3 6.05 -7.95 4.8 Q-7.8 5.25 -7.9 5.7 L-7.5 5.6 -7.5 5.65 Q-7.15 4.4 -5.7 4.3 L-5.65 4.3 Q-5.2 4.4 -4.95 4.7 -4.8 4.7 -4.8 4.85 -4.7 5.45 -5.0 5.95 L-9.25 12.65 -9.25 12.55 Q-8.9 9.85 -8.2 7.35 L-9.55 11.1 -9.55 11.25 -9.55 11.35 -9.6 11.35 -11.55 17.75 -11.55 17.65 -11.55 17.2 M-5.05 4.95 L-5.05 4.9 -6.8 4.85 -7.15 5.25 -8.85 10.85 -8.85 10.95 -8.15 10.25 -6.25 7.55 -6.25 7.5 -6.1 6.95 Q-5.65 6.8 -5.4 6.1 L-5.05 4.95" fill="#81231f" fill-opacity="0.9647059" fill-rule="evenodd" stroke="none"/>
    <path d="M-5.05 4.95 L-5.4 6.1 Q-5.65 6.8 -6.1 6.95 L-6.25 7.5 -6.25 7.55 -8.15 10.25 -8.85 10.95 -8.85 10.85 -7.15 5.25 -6.8 4.85 -5.05 4.9 -5.05 4.95" fill="#711713" fill-rule="evenodd" stroke="none"/>
    <path d="M-4.85 3.35 L-4.8 3.4 Q-4.4 4.1 -5.4 4.15 -6.1 4.2 -6.7 4.5 -7.35 4.85 -7.6 4.5 L-7.65 4.3 -5.0 3.2 -4.85 3.35" fill="#dd5452" fill-rule="evenodd" stroke="none"/>
    <path d="M-6.8 10.95 Q-6.55 10.65 -6.35 10.7 L-6.25 10.7 Q-8.2 14.1 -10.45 17.3 -10.8 17.9 -10.95 17.6 L-10.35 16.6 -10.35 16.55 -10.35 16.45 -10.35 16.4 -6.85 10.95 -6.8 10.95" fill="#fb7e7a" fill-rule="evenodd" stroke="none"/>
    <path d="M-10.35 16.55 L-10.35 16.6 -10.95 17.6 Q-10.8 17.9 -10.45 17.3 -8.2 14.1 -6.25 10.7 L-6.35 10.7 Q-6.55 10.65 -6.8 10.95 L-5.3 8.4 Q-4.45 7.0 -3.35 6.35 -3.2 6.35 -3.3 6.5 L-5.15 9.75 -10.9 18.2 Q-11.35 18.85 -11.5 18.15 L-10.4 16.55 -10.35 16.55" fill="#ee6966" fill-rule="evenodd" stroke="none"/>
    <path d="M-2.7 6.1 L-2.1 6.55 -2.1 6.75 -2.6 7.3 Q-2.35 6.95 -2.45 6.55 L-2.65 6.2 -2.7 6.1 M-2.85 7.5 L-4.0 9.05 -9.7 17.5 -9.7 17.4 -9.7 17.35 -4.05 8.85 -2.85 7.5" fill="#c43536" fill-rule="evenodd" stroke="none"/>
    <path d="M-5.4 14.05 L-5.5 13.9 Q-6.05 14.3 -6.35 14.2 L-1.8 7.75 Q-1.6 7.5 -1.2 7.5 -0.45 7.8 -0.7 9.1 L-0.85 10.05 -0.9 10.1 -4.95 13.45 -4.85 13.5 -4.8 13.5 -4.8 13.55 -5.4 14.05 M-1.25 8.15 L-1.3 8.15 -4.2 12.15 -4.2 12.2 Q-2.7 11.25 -1.2 9.9 -1.1 9.0 -1.25 8.15" fill="#791b17" fill-rule="evenodd" stroke="none"/>
    <path d="M-1.25 8.15 Q-1.1 9.0 -1.2 9.9 -2.7 11.25 -4.2 12.2 L-4.2 12.15 -1.3 8.15 -1.25 8.15" fill="#641611" fill-rule="evenodd" stroke="none"/>
    <path d="M-0.85 10.05 Q-0.25 9.85 -0.85 10.65 L-0.85 10.7 -0.95 10.7 -4.8 13.5 -4.85 13.5 -4.95 13.45 -0.9 10.1 -0.85 10.05" fill="#973634" fill-rule="evenodd" stroke="none"/>
    <path d="M-8.25 16.8 L-8.3 16.85 -12.25 19.9 -12.25 20.0 -12.3 20.0 -12.35 19.6 -11.6 17.2 -11.55 17.2 -11.55 17.65 -11.55 17.75 -11.55 17.8 -12.05 19.2 -11.45 19.1 -10.05 17.9 -8.25 16.55 -8.2 16.55 -8.2 16.6 -8.25 16.7 -8.25 16.8" fill="#70261f" fill-opacity="0.8666667" fill-rule="evenodd" stroke="none"/>
  </g>
</svg>
