<?xml version="1.0" encoding="UTF-8" standalone="no"?>
<svg xmlns:xlink="http://www.w3.org/1999/xlink" height="60.0px" width="180.0px" xmlns="http://www.w3.org/2000/svg">
  <g transform="matrix(1.0, 0.0, 0.0, 1.0, 90.0, 30.0)">
    <path d="M50.4 -25.8 L57.0 -26.2 75.4 -26.55 Q81.4 -26.55 82.85 -25.8 86.35 -24.1 88.45 -24.15 91.8 -19.55 87.9 -16.65 87.35 -16.25 87.5 -15.25 88.25 -10.0 85.75 -7.9 L85.6 -7.65 Q84.8 -5.8 85.2 -2.4 89.5 0.5 88.0 4.6 87.35 6.4 87.85 7.5 89.3 11.6 88.45 13.3 L80.7 15.65 73.3 17.35 56.95 20.15 Q45.7 15.65 28.8 16.65 L-2.65 17.65 Q-34.05 17.8 -56.05 26.7 -60.25 28.45 -64.5 30.0 L-65.55 30.0 -68.85 30.0 Q-70.25 28.35 -74.25 28.25 L-78.95 27.8 -83.2 26.65 Q-88.55 24.8 -90.0 19.7 L-90.0 15.2 Q-86.35 1.9 -86.5 -4.4 -86.55 -8.1 -87.5 -9.8 -89.25 -12.75 -89.0 -16.3 L-89.0 -17.25 -89.4 -22.75 -89.45 -24.1 -89.45 -24.15 -88.35 -24.75 -87.95 -24.95 Q-83.9 -27.2 -78.95 -28.8 L-76.6 -29.5 Q-76.45 -29.55 -76.45 -30.0 L-66.65 -30.0 -65.55 -30.0 Q-43.7 -20.85 -11.35 -20.3 9.55 -19.9 24.4 -24.15 34.05 -21.1 43.7 -24.65 46.15 -25.55 50.4 -25.8" fill="#cccccc" fill-rule="evenodd" stroke="none"/>
  </g>
</svg>
