<?xml version="1.0" encoding="UTF-8" standalone="no"?>
<svg xmlns:xlink="http://www.w3.org/1999/xlink" height="60.0px" width="180.0px" xmlns="http://www.w3.org/2000/svg">
  <g transform="matrix(1.0, 0.0, 0.0, 1.0, 90.0, 30.0)">
    <path d="M13.05 -17.0 Q22.7 -17.95 32.0 -20.0 47.95 -23.55 61.7 -30.0 68.05 -23.85 78.45 -23.15 L79.15 -23.1 Q83.2 -20.75 85.85 -16.45 86.05 -16.2 86.4 -16.2 88.65 -10.9 89.65 -3.5 89.65 -3.4 89.95 -3.4 L90.0 -3.4 90.0 9.35 90.0 10.35 89.95 10.45 Q85.05 16.9 78.3 20.75 L73.55 23.7 Q66.4 28.45 56.6 30.0 52.0 26.95 47.8 23.4 43.45 19.8 37.15 18.35 28.3 16.35 18.15 15.8 -4.45 14.6 -21.75 14.8 -32.85 14.95 -41.25 18.75 -49.2 22.4 -56.5 27.25 L-57.2 27.45 Q-61.25 25.9 -63.15 29.05 -69.5 27.3 -73.3 22.15 -79.1 14.25 -90.0 13.3 L-90.0 12.3 -90.0 1.45 Q-88.4 -1.75 -88.2 -7.35 L-87.85 -9.3 Q-84.2 -13.8 -82.5 -20.4 -82.0 -22.1 -82.0 -24.1 -80.05 -25.8 -76.25 -25.75 L-69.65 -26.05 Q-66.05 -23.65 -61.0 -22.7 L-60.15 -22.3 Q-56.45 -19.85 -52.2 -18.15 -41.9 -14.0 -27.55 -14.4 L13.05 -17.0" fill="#cccccc" fill-rule="evenodd" stroke="none"/>
  </g>
</svg>
