<?xml version="1.0" encoding="UTF-8" standalone="no"?>
<svg xmlns:xlink="http://www.w3.org/1999/xlink" height="8.5px" width="8.5px" xmlns="http://www.w3.org/2000/svg">
  <g transform="matrix(1.0, 0.0, 0.0, 1.0, 4.1, 4.1)">
    <path d="M0.15 -4.1 Q1.9 -4.1 3.15 -2.85 4.4 -1.6 4.4 0.15 4.4 1.9 3.15 3.15 1.9 4.4 0.15 4.4 -1.6 4.4 -2.85 3.15 -4.1 1.9 -4.1 0.15 -4.1 -1.6 -2.85 -2.85 -1.6 -4.1 0.15 -4.1" fill="#000000" fill-rule="evenodd" stroke="none"/>
    <path d="M2.85 -2.85 Q4.0 -1.65 4.0 0.0 4.0 1.6 2.85 2.8 1.65 4.0 0.0 4.0 -1.6 4.0 -2.8 2.8 -4.0 1.6 -4.0 0.0 -4.0 -1.65 -2.8 -2.85 -1.6 -4.0 0.0 -4.0 1.65 -4.0 2.85 -2.85" fill="url(#gradient0)" fill-rule="evenodd" stroke="none"/>
    <path d="M0.5 2.0 L0.5 4.0 -0.5 4.0 -0.5 2.0 0.5 2.0" fill="url(#gradient1)" fill-rule="evenodd" stroke="none"/>
    <path d="M0.5 -4.0 L0.5 -2.0 -0.5 -2.0 -0.5 -4.0 0.5 -4.0" fill="url(#gradient2)" fill-rule="evenodd" stroke="none"/>
    <path d="M-2.0 0.5 L-4.0 0.5 -4.0 -0.5 -2.0 -0.5 -2.0 0.5" fill="url(#gradient3)" fill-rule="evenodd" stroke="none"/>
    <path d="M2.0 -0.5 L4.0 -0.5 4.0 0.5 2.0 0.5 2.0 -0.5" fill="url(#gradient4)" fill-rule="evenodd" stroke="none"/>
  </g>
  <defs>
    <radialGradient cx="0" cy="0" gradientTransform="matrix(0.0052, 0.0, 0.0, 0.0052, 0.0, 0.0)" gradientUnits="userSpaceOnUse" id="gradient0" r="819.2" spreadMethod="pad">
      <stop offset="0.48627450980392156" stop-color="#ff6342"/>
      <stop offset="1.0" stop-color="#454b0a"/>
    </radialGradient>
    <radialGradient cx="0" cy="0" gradientTransform="matrix(0.0013, 0.0, 0.0, 0.0013, 0.0, 3.0)" gradientUnits="userSpaceOnUse" id="gradient1" r="819.2" spreadMethod="pad">
      <stop offset="0.48627450980392156" stop-color="#4375e7"/>
      <stop offset="1.0" stop-color="#000000"/>
    </radialGradient>
    <radialGradient cx="0" cy="0" gradientTransform="matrix(0.0013, 0.0, 0.0, 0.0013, 0.0, -3.0)" gradientUnits="userSpaceOnUse" id="gradient2" r="819.2" spreadMethod="pad">
      <stop offset="0.48627450980392156" stop-color="#4375e7"/>
      <stop offset="1.0" stop-color="#000000"/>
    </radialGradient>
    <radialGradient cx="0" cy="0" gradientTransform="matrix(0.0, 0.0013, -0.0013, 0.0, -3.0, 0.0)" gradientUnits="userSpaceOnUse" id="gradient3" r="819.2" spreadMethod="pad">
      <stop offset="0.48627450980392156" stop-color="#4375e7"/>
      <stop offset="1.0" stop-color="#000000"/>
    </radialGradient>
    <radialGradient cx="0" cy="0" gradientTransform="matrix(0.0, -0.0013, 0.0013, 0.0, 3.0, 0.0)" gradientUnits="userSpaceOnUse" id="gradient4" r="819.2" spreadMethod="pad">
      <stop offset="0.48627450980392156" stop-color="#4375e7"/>
      <stop offset="1.0" stop-color="#000000"/>
    </radialGradient>
  </defs>
</svg>
