<?xml version="1.0" encoding="UTF-8" standalone="no"?>
<svg xmlns:xlink="http://www.w3.org/1999/xlink" height="11.3px" width="10.0px" xmlns="http://www.w3.org/2000/svg">
  <g transform="matrix(1.0, 0.0, 0.0, 1.0, 4.2, 3.5)">
    <path d="M5.8 -2.2 L5.8 7.8 -4.2 7.8 -4.2 -2.2 5.8 -2.2" fill="#333333" fill-rule="evenodd" stroke="none"/>
    <path d="M2.45 -2.5 Q3.5 -1.45 3.5 0.0 3.5 1.4 2.45 2.45 1.45 3.5 0.0 3.5 -1.45 3.5 -2.5 2.45 -3.5 1.4 -3.5 0.0 -3.5 -1.45 -2.5 -2.5 -1.45 -3.5 0.0 -3.5 1.45 -3.5 2.45 -2.5" fill="url(#gradient0)" fill-rule="evenodd" stroke="none"/>
    <path d="M2.9 4.2 L5.75 7.05 5.0 7.8 2.15 4.95 2.9 4.2" fill="#eeeeee" fill-rule="evenodd" stroke="none"/>
    <path d="M-0.6 4.9 L-3.45 7.75 -4.2 7.0 -1.35 4.15 -0.6 4.9" fill="#eeeeee" fill-rule="evenodd" stroke="none"/>
  </g>
  <defs>
    <radialGradient cx="0" cy="0" gradientTransform="matrix(0.0044, 0.0, 0.0, 0.0044, 0.0, 0.0)" gradientUnits="userSpaceOnUse" id="gradient0" r="819.2" spreadMethod="pad">
      <stop offset="0.25882352941176473" stop-color="#ff2222"/>
      <stop offset="1.0" stop-color="#2b0000"/>
    </radialGradient>
  </defs>
</svg>
