<?xml version="1.0" encoding="UTF-8" standalone="no"?>
<svg xmlns:xlink="http://www.w3.org/1999/xlink" height="40.0px" width="40.0px" xmlns="http://www.w3.org/2000/svg">
  <g transform="matrix(1.0, 0.0, 0.0, 1.0, 20.0, 20.0)">
    <path d="M-0.95 -16.95 L-0.95 -17.05 -0.95 -17.2 Q-0.45 -18.5 -0.1 -19.95 L-0.1 -20.0 0.45 -18.75 1.2 -15.85 4.65 -5.15 4.65 -4.75 4.65 -4.7 2.2 -3.3 2.2 -3.35 Q1.6 -3.85 1.2 -4.5 L1.25 -10.8 Q1.4 -14.3 0.65 -16.75 L0.65 -16.8 0.2 -18.25 0.1 -18.8 0.05 -18.95 -0.7 -17.2 -0.7 -17.05 -0.7 -16.95 -0.75 -16.95 -0.95 -16.95" fill="#025903" fill-opacity="0.972549" fill-rule="evenodd" stroke="none"/>
    <path d="M-0.7 -16.95 L-0.7 -17.05 -0.7 -17.2 0.05 -18.95 0.1 -18.8 0.2 -18.25 0.3 -13.55 0.35 -12.35 Q0.1 -11.75 0.25 -11.5 0.5 -10.95 -0.2 -11.15 L-0.05 -10.85 Q0.25 -11.1 0.45 -10.1 L0.5 -9.7 Q0.5 -9.25 0.3 -9.15 0.85 -7.95 0.8 -5.45 0.8 -3.5 2.25 -3.1 L2.6 -3.15 2.55 -3.05 2.2 -2.9 2.4 -2.6 Q1.3 -3.3 -0.2 -3.35 L-0.8 -3.25 -1.55 -3.3 Q-1.45 -3.3 -1.5 -3.55 L-1.5 -3.6 -1.5 -3.7 -1.5 -3.75 Q-0.95 -6.6 -0.95 -9.75 L-0.9 -12.8 Q-0.85 -14.0 -1.2 -14.7 -1.35 -14.95 -1.1 -15.7 L-1.1 -15.8 -1.1 -15.85 Q-0.85 -16.3 -0.75 -16.9 L-0.7 -16.95 M2.95 -2.5 L2.9 -2.4 2.6 -2.45 2.55 -2.5 2.9 -2.5 2.95 -2.5" fill="#32ad31" fill-rule="evenodd" stroke="none"/>
    <path d="M0.2 -18.25 L0.65 -16.8 0.65 -16.75 0.7 -11.6 0.85 -7.8 Q0.95 -6.1 1.2 -4.5 1.6 -3.85 2.2 -3.35 L2.2 -3.3 4.65 -4.7 4.65 -4.75 13.35 -4.75 13.4 -4.75 16.85 -4.55 18.55 -4.4 17.65 -4.4 16.15 -4.25 Q15.15 -4.15 14.7 -3.85 L14.8 -3.8 Q10.2 -2.0 5.05 -0.7 L4.95 -0.7 4.15 -0.8 Q4.45 0.25 5.15 0.8 L5.15 0.75 10.25 -1.05 13.1 -2.05 16.05 -2.85 16.1 -2.8 14.95 -2.4 Q9.8 -0.7 4.9 1.15 L4.9 1.1 3.45 -1.3 3.4 -1.35 2.65 -2.1 2.6 -2.1 Q1.45 -2.9 -0.1 -2.9 L-0.5 -3.05 Q-0.65 -3.25 -0.95 -3.05 L-1.8 -2.95 Q-1.55 -3.15 -1.55 -3.6 L-1.5 -3.6 -1.5 -3.55 Q-1.45 -3.3 -1.55 -3.3 L-0.8 -3.25 -0.2 -3.35 Q1.3 -3.3 2.4 -2.6 L2.55 -2.5 2.6 -2.45 2.9 -2.4 2.95 -2.5 4.2 -4.1 4.2 -4.15 13.55 -4.35 13.5 -4.4 4.5 -4.5 4.5 -4.45 2.6 -3.2 2.6 -3.15 2.25 -3.1 Q0.8 -3.5 0.8 -5.45 0.85 -7.95 0.3 -9.15 0.5 -9.25 0.5 -9.7 L0.45 -10.1 Q0.25 -11.1 -0.05 -10.85 L-0.2 -11.15 Q0.5 -10.95 0.25 -11.5 0.1 -11.75 0.35 -12.35 L0.3 -13.55 0.2 -18.25 M5.45 -4.0 Q3.75 -4.1 3.35 -2.55 L4.0 -1.6 4.05 -1.6 5.15 -1.1 Q5.45 -0.9 5.65 -1.1 L12.4 -3.25 12.4 -3.3 13.55 -3.75 13.25 -3.9 10.4 -4.05 9.55 -4.05 5.6 -4.1 5.6 -4.0 5.5 -4.0 5.45 -4.0" fill="#1f9f1d" fill-rule="evenodd" stroke="none"/>
    <path d="M0.65 -16.75 Q1.4 -14.3 1.25 -10.8 L1.2 -4.5 Q0.95 -6.1 0.85 -7.8 L0.7 -11.6 0.65 -16.75" fill="#069504" fill-rule="evenodd" stroke="none"/>
    <path d="M2.6 -3.15 L2.6 -3.2 4.5 -4.45 4.5 -4.5 13.5 -4.4 13.55 -4.35 4.2 -4.15 4.2 -4.1 2.95 -2.5 2.9 -2.5 2.55 -2.5 2.4 -2.6 2.2 -2.9 2.55 -3.05 2.6 -3.15" fill="#41b942" fill-rule="evenodd" stroke="none"/>
    <path d="M-4.7 -5.0 L-4.7 -5.05 -4.7 -5.2 -4.65 -5.25 -4.65 -5.3 Q-3.5 -7.5 -2.75 -10.15 L-2.7 -10.15 -4.1 -4.9 -4.1 -4.8 Q-3.7 -3.9 -2.8 -3.5 L-2.55 -3.45 Q-1.3 -4.35 -1.6 -6.85 L-1.7 -9.05 Q-1.6 -10.9 -1.8 -12.35 L-2.5 -10.65 -2.55 -10.65 -1.15 -15.7 -1.1 -15.7 Q-1.35 -14.95 -1.2 -14.7 -0.85 -14.0 -0.9 -12.8 L-0.95 -9.75 Q-0.95 -6.6 -1.5 -3.75 L-1.5 -3.7 -1.5 -3.6 -1.55 -3.6 Q-1.55 -3.15 -1.8 -2.95 L-0.95 -3.05 Q-0.65 -3.25 -0.5 -3.05 L-0.1 -2.9 Q1.45 -2.9 2.6 -2.1 L2.65 -2.1 Q2.9 -1.6 2.1 -2.1 L0.95 -2.5 Q-3.8 -3.0 -4.65 1.0 -4.65 4.6 -2.25 5.7 L1.4 5.85 Q3.7 5.1 4.1 2.6 4.5 0.3 3.4 -1.0 2.8 -1.7 3.45 -1.3 L4.9 1.1 4.9 1.15 Q9.8 -0.7 14.95 -2.4 L16.1 -2.8 18.2 -3.6 18.25 -3.6 16.25 -2.3 Q13.9 -1.0 11.1 -0.1 8.45 0.7 5.9 1.75 5.35 2.3 5.3 2.85 L6.45 3.8 Q5.65 3.1 4.5 3.1 L4.55 3.15 Q5.45 4.25 6.9 4.4 L6.7 4.05 7.2 4.65 7.15 4.6 4.9 4.0 5.95 5.25 5.9 5.25 Q5.3 5.85 5.85 6.5 L7.3 8.35 9.65 11.5 9.9 12.45 9.95 12.45 10.2 13.65 10.15 13.6 8.65 11.25 Q8.25 11.0 8.1 10.45 L6.95 9.2 6.95 9.05 6.95 9.0 6.55 8.25 5.8 7.35 5.65 6.65 Q4.95 5.55 3.95 6.15 5.2 8.5 6.75 10.5 L8.85 13.35 10.7 15.85 10.75 15.95 10.95 16.05 11.3 16.85 11.35 16.85 11.95 19.05 11.0 18.4 6.4 11.9 5.75 10.95 Q4.4 8.75 2.6 6.95 L2.5 6.95 Q1.55 7.1 0.95 7.75 0.6 8.55 0.4 9.45 L0.05 10.05 Q-0.2 10.25 -0.5 10.3 L-0.5 10.4 -0.55 10.4 -0.95 10.7 -0.95 10.65 Q-0.75 10.3 -1.05 10.15 L-0.65 9.5 Q-0.25 8.15 -1.05 7.3 -1.65 7.3 -1.95 7.75 L-6.7 14.55 Q-6.6 14.9 -6.1 14.35 L-4.7 13.25 -4.5 13.3 -4.4 13.25 -4.45 13.35 -8.7 16.85 -4.0 9.7 -3.7 9.2 Q-2.75 7.15 -0.8 6.95 -0.4 7.5 -0.5 8.45 -0.6 9.55 -0.2 10.0 L-0.15 10.0 Q0.25 8.5 0.9 7.2 L1.75 6.5 1.05 6.45 -1.05 6.55 -2.35 6.0 Q-4.2 5.05 -4.7 2.85 -5.25 0.65 -4.15 -0.9 -3.75 -1.45 -4.2 -1.55 L-5.1 -1.05 -5.45 -1.0 -11.8 -2.8 Q-13.15 -3.2 -14.25 -3.85 L-7.2 -3.75 -12.1 -3.7 -10.35 -2.85 Q-8.0 -2.15 -5.6 -1.6 L-4.6 -1.7 -4.25 -2.15 Q-4.1 -2.5 -4.4 -3.0 -3.95 -2.3 -3.2 -2.15 L-3.1 -2.15 Q-2.55 -2.45 -3.2 -2.9 L-3.5 -3.2 -4.35 -4.1 -4.35 -4.15 -4.5 -4.4 -4.5 -4.5 -4.7 -4.65 -4.7 -4.75 -4.7 -4.8 -4.7 -4.9 -4.7 -5.0 M4.3 7.75 L3.7 6.5 Q3.35 5.65 2.75 5.9 L4.1 8.35 10.1 16.6 10.0 16.25 4.3 7.75" fill="#0a8b07" fill-opacity="0.99607843" fill-rule="evenodd" stroke="none"/>
    <path d="M2.65 -2.1 L3.4 -1.35 3.45 -1.3 Q2.8 -1.7 3.4 -1.0 4.5 0.3 4.1 2.6 3.7 5.1 1.4 5.85 L-2.25 5.7 Q-4.65 4.6 -4.65 1.0 -3.8 -3.0 0.95 -2.5 L2.1 -2.1 Q2.9 -1.6 2.65 -2.1" fill="#056400" fill-rule="evenodd" stroke="none"/>
    <path d="M5.65 -1.1 Q5.45 -0.9 5.15 -1.1 L4.05 -1.6 4.0 -1.6 3.35 -2.55 Q3.75 -4.1 5.45 -4.0 4.1 -3.95 3.8 -2.9 4.35 -0.95 6.3 -1.9 L7.65 -2.45 11.7 -3.85 10.4 -4.05 13.25 -3.9 13.55 -3.75 12.4 -3.3 Q11.8 -3.45 12.7 -3.6 12.95 -3.65 12.7 -3.65 L11.15 -3.35 7.75 -2.0 Q6.9 -2.05 6.35 -1.55 L5.35 -1.3 5.6 -1.1 5.65 -1.1 M5.6 -4.0 L5.6 -4.1 9.55 -4.05 8.8 -4.05 5.6 -4.0" fill="#047c04" fill-rule="evenodd" stroke="none"/>
    <path d="M5.05 -0.7 Q10.2 -2.0 14.8 -3.8 L14.7 -3.85 Q15.15 -4.15 16.15 -4.25 L17.65 -4.4 18.55 -4.4 19.2 -4.35 19.15 -4.3 19.1 -4.3 19.0 -4.25 18.95 -4.25 17.8 -3.7 18.05 -3.95 18.05 -4.1 9.55 -1.85 9.55 -1.75 9.5 -1.75 5.8 -0.8 5.8 -0.7 5.75 -0.7 5.05 -0.65 5.05 -0.7" fill="#38ce35" fill-rule="evenodd" stroke="none"/>
    <path d="M16.1 -2.8 L16.05 -2.85 13.1 -2.05 10.25 -1.05 5.15 0.75 5.15 0.8 Q4.45 0.25 4.15 -0.8 L4.95 -0.7 5.05 -0.7 5.05 -0.65 4.95 -0.65 4.35 -0.55 Q4.95 0.9 6.4 0.2 L8.65 -0.7 13.8 -2.5 13.8 -2.55 17.7 -3.7 17.8 -3.7 18.95 -4.25 19.0 -4.25 19.0 -4.2 18.25 -3.6 18.2 -3.6 16.1 -2.8" fill="#2fc42c" fill-rule="evenodd" stroke="none"/>
    <path d="M5.05 -0.65 L5.05 -0.6 4.5 -0.4 Q5.25 0.3 6.45 -0.2 L8.35 -0.9 13.8 -2.5 8.65 -0.7 6.4 0.2 Q4.95 0.9 4.35 -0.55 L4.95 -0.65 5.05 -0.65" fill="#41d440" fill-rule="evenodd" stroke="none"/>
    <path d="M13.8 -2.5 L8.35 -0.9 6.45 -0.2 Q5.25 0.3 4.5 -0.4 L5.05 -0.6 5.05 -0.65 5.75 -0.7 5.8 -0.7 4.65 -0.4 Q5.25 0.15 6.25 -0.2 L11.7 -2.05 17.25 -3.75 9.65 -1.8 9.55 -1.75 9.55 -1.85 18.05 -4.1 18.05 -3.95 17.8 -3.7 17.7 -3.7 13.8 -2.55 13.8 -2.5" fill="#58eb59" fill-rule="evenodd" stroke="none"/>
    <path d="M10.4 -4.05 L11.7 -3.85 7.65 -2.45 6.3 -1.9 Q4.35 -0.95 3.8 -2.9 4.1 -3.95 5.45 -4.0 L5.5 -4.0 5.6 -4.0 8.8 -4.05 9.55 -4.05 10.4 -4.05" fill="#004b01" fill-rule="evenodd" stroke="none"/>
    <path d="M5.65 -1.1 L5.6 -1.1 5.35 -1.3 6.35 -1.55 Q6.9 -2.05 7.75 -2.0 L11.15 -3.35 12.7 -3.65 Q12.95 -3.65 12.7 -3.6 11.8 -3.45 12.4 -3.3 L12.4 -3.25 5.65 -1.1" fill="#089906" fill-rule="evenodd" stroke="none"/>
    <path d="M9.55 -1.75 L9.65 -1.8 17.25 -3.75 11.7 -2.05 6.25 -0.2 Q5.25 0.15 4.65 -0.4 L5.8 -0.7 5.8 -0.8 9.5 -1.75 9.55 -1.75" fill="#74fc74" fill-rule="evenodd" stroke="none"/>
    <path d="M13.4 -4.75 L20.0 -4.7 20.0 -4.65 19.95 -4.65 15.0 -0.9 15.0 -0.95 12.95 0.5 Q12.25 1.05 11.55 1.15 10.9 1.25 10.95 1.6 L10.45 1.6 Q9.65 1.7 9.4 2.05 L9.4 2.0 8.85 2.0 8.45 2.4 7.95 2.3 7.95 2.35 Q7.05 2.9 5.95 2.85 6.55 3.65 7.65 3.95 L8.5 4.15 8.45 4.2 7.65 4.8 8.1 6.0 8.1 6.05 8.1 6.15 7.15 6.05 8.6 8.55 9.2 9.95 9.65 11.5 7.3 8.35 5.85 6.5 Q5.3 5.85 5.9 5.25 L5.95 5.25 4.9 4.0 7.15 4.6 7.2 4.65 6.7 4.05 6.45 3.8 5.3 2.85 Q5.35 2.3 5.9 1.75 8.45 0.7 11.1 -0.1 13.9 -1.0 16.25 -2.3 L18.25 -3.6 19.0 -4.2 19.0 -4.25 19.1 -4.3 19.15 -4.3 19.2 -4.35 18.55 -4.4 16.85 -4.55 13.4 -4.75" fill="#016103" fill-opacity="0.9882353" fill-rule="evenodd" stroke="none"/>
    <path d="M15.0 -0.9 L15.0 -0.85 8.5 4.15 7.65 3.95 Q6.55 3.65 5.95 2.85 7.05 2.9 7.95 2.35 L7.95 2.3 8.45 2.4 8.85 2.0 9.4 2.0 9.4 2.05 Q9.65 1.7 10.45 1.6 L10.95 1.6 Q10.9 1.25 11.55 1.15 12.25 1.05 12.95 0.5 L15.0 -0.95 15.0 -0.9" fill="#024204" fill-opacity="0.96862745" fill-rule="evenodd" stroke="none"/>
    <path d="M-0.95 -16.95 L-0.75 -16.95 -0.7 -16.95 -0.75 -16.9 Q-0.85 -16.3 -1.1 -15.85 L-1.1 -15.8 -1.1 -15.7 -1.15 -15.7 -2.55 -10.65 -2.5 -10.65 -1.8 -12.35 Q-1.6 -10.9 -1.7 -9.05 L-1.6 -6.85 Q-1.3 -4.35 -2.55 -3.45 L-2.8 -3.5 Q-3.7 -3.9 -4.1 -4.8 L-4.1 -4.9 -2.7 -10.15 -2.75 -10.15 Q-3.5 -7.5 -4.65 -5.3 L-4.65 -5.4 -4.65 -5.45 -1.25 -16.2 -0.95 -16.95 M-2.15 -9.45 L-2.25 -10.55 -2.3 -10.55 -3.8 -6.0 -3.8 -5.95 Q-3.75 -4.35 -2.55 -3.95 -2.3 -3.95 -2.3 -4.2 -2.15 -6.5 -2.15 -9.45" fill="#036205" fill-opacity="0.96862745" fill-rule="evenodd" stroke="none"/>
    <path d="M-7.85 4.45 L-11.9 1.55 -20.0 -4.6 -20.0 -4.65 -14.85 -4.8 -6.05 -4.85 -5.95 -4.85 -4.7 -4.8 -4.7 -4.75 -4.7 -4.65 -10.65 -4.45 -16.6 -4.5 -16.7 -4.5 -17.7 -4.5 -17.75 -4.5 -19.4 -4.5 -17.0 -2.65 -16.9 -2.65 -16.1 -2.05 -16.1 -2.0 Q-14.5 -0.95 -12.35 -0.35 L-8.55 0.75 Q-6.75 1.25 -5.55 2.15 -5.35 2.3 -5.4 2.7 -5.65 3.3 -6.2 3.6 L-6.7 3.8 -6.8 3.8 -6.85 3.8 -6.85 3.85 -6.9 3.85 Q-7.55 4.05 -7.85 4.45" fill="#025704" fill-opacity="0.9843137" fill-rule="evenodd" stroke="none"/>
    <path d="M-7.85 4.7 L-7.85 4.65 -7.85 4.45 Q-7.55 4.05 -6.9 3.85 L-6.85 3.85 -6.8 3.8 -6.7 3.8 -6.2 3.6 -5.65 3.4 Q-5.25 3.25 -5.25 2.6 -5.25 1.9 -5.75 1.6 L-5.8 1.55 Q-10.8 -0.4 -16.1 -2.0 L-16.1 -2.05 -16.9 -2.65 -12.95 -1.35 -8.85 -0.1 Q-6.65 0.5 -5.25 1.75 L-4.55 -0.25 Q-4.2 -1.05 -4.55 -1.1 L-5.1 -0.9 Q-7.5 -1.0 -9.65 -1.75 L-14.75 -3.45 Q-15.55 -3.7 -15.75 -4.1 L-15.85 -4.1 -17.7 -4.5 -16.7 -4.5 -16.6 -4.5 Q-13.05 -4.2 -8.95 -4.4 L-8.95 -4.35 -9.0 -4.35 Q-8.8 -4.1 -9.55 -4.2 L-7.85 -3.95 -7.1 -3.75 -7.2 -3.75 -14.25 -3.85 Q-13.15 -3.2 -11.8 -2.8 L-5.45 -1.0 -5.1 -1.05 -4.2 -1.55 Q-3.75 -1.45 -4.15 -0.9 -5.25 0.65 -4.7 2.85 -4.2 5.05 -2.35 6.0 L-1.05 6.55 1.05 6.45 1.75 6.5 0.9 7.2 Q0.25 8.5 -0.15 10.0 L-0.2 10.0 Q-0.6 9.55 -0.5 8.45 -0.4 7.5 -0.8 6.95 -2.75 7.15 -3.7 9.2 L-4.0 9.7 -8.7 16.85 -8.75 16.9 -10.5 18.2 -10.5 18.15 -4.8 9.7 -2.75 7.1 Q-2.3 6.6 -2.8 6.15 -3.3 5.6 -3.8 6.05 L-3.85 6.05 -9.45 14.7 -10.2 16.05 -10.45 16.4 -10.5 16.5 Q-10.15 13.8 -9.5 11.65 L-9.55 11.7 -11.55 17.9 -11.55 17.8 -11.55 17.65 -11.1 16.05 -11.1 15.95 -7.7 5.5 -7.65 5.5 -9.95 14.15 -9.95 14.25 -9.95 14.3 -10.1 14.7 Q-9.8 14.9 -9.45 14.3 L-6.75 10.25 -4.2 6.0 Q-3.95 4.95 -4.8 4.05 L-6.4 4.35 -6.85 4.65 -7.85 4.7" fill="#1da719" fill-rule="evenodd" stroke="none"/>
    <path d="M-16.85 -3.85 L-16.9 -3.85 -17.3 -3.75 Q-16.75 -3.4 -16.0 -3.2 L-15.9 -3.2 Q-12.35 -1.8 -8.4 -0.65 L-8.35 -0.65 Q-6.75 -0.25 -5.6 0.45 -5.2 0.7 -5.1 0.05 L-5.05 -0.05 -5.25 0.8 -5.3 0.85 Q-5.55 0.95 -5.9 0.55 L-7.45 -0.35 Q-13.0 -1.85 -18.0 -3.85 L-16.85 -3.9 -16.85 -3.85" fill="#46d945" fill-rule="evenodd" stroke="none"/>
    <path d="M-15.9 -3.2 L-16.0 -3.2 Q-16.75 -3.4 -17.3 -3.75 L-16.9 -3.85 -16.85 -3.85 -11.35 -2.25 -8.0 -1.2 -4.9 -0.4 -4.9 -0.25 Q-4.9 -0.1 -5.05 -0.05 L-5.1 0.05 Q-5.2 0.7 -5.6 0.45 -6.75 -0.25 -8.35 -0.65 L-8.1 -0.65 -8.05 -0.65 -6.95 -0.25 -6.3 0.0 -5.25 -0.05 -5.2 -0.15 Q-10.75 -1.7 -15.85 -3.55 L-15.85 -3.6 -16.7 -3.7 Q-16.45 -3.4 -15.95 -3.25 L-15.9 -3.2" fill="#53e653" fill-rule="evenodd" stroke="none"/>
    <path d="M-16.85 -3.85 L-16.85 -3.9 -18.0 -3.85 Q-13.0 -1.85 -7.45 -0.35 L-5.9 0.55 Q-5.55 0.95 -5.3 0.85 L-5.25 0.8 -5.05 -0.05 Q-4.9 -0.1 -4.9 -0.25 L-4.9 -0.4 -8.0 -1.2 -11.35 -2.25 -16.85 -3.85 M-17.7 -4.5 L-15.85 -4.1 -15.75 -4.1 Q-15.55 -3.7 -14.75 -3.45 L-9.65 -1.75 Q-7.5 -1.0 -5.1 -0.9 L-4.55 -1.1 Q-4.2 -1.05 -4.55 -0.25 L-5.25 1.75 Q-6.65 0.5 -8.85 -0.1 L-12.95 -1.35 -16.9 -2.65 -17.0 -2.65 -19.4 -4.5 -17.75 -4.5 -17.7 -4.5" fill="#2bc027" fill-rule="evenodd" stroke="none"/>
    <path d="M-8.35 -0.65 L-8.4 -0.65 Q-12.35 -1.8 -15.9 -3.2 L-15.95 -3.25 Q-16.45 -3.4 -16.7 -3.7 L-15.85 -3.6 -15.85 -3.55 -15.9 -3.55 -16.1 -3.55 Q-12.35 -1.85 -8.05 -0.7 L-8.05 -0.65 -8.1 -0.65 -8.35 -0.65" fill="#62f463" fill-rule="evenodd" stroke="none"/>
    <path d="M-15.85 -3.55 Q-10.75 -1.7 -5.2 -0.15 L-5.25 -0.05 -6.3 0.0 -6.95 -0.25 -8.05 -0.65 -8.05 -0.7 Q-12.35 -1.85 -16.1 -3.55 L-15.9 -3.55 -15.85 -3.55" fill="#7efe7e" fill-rule="evenodd" stroke="none"/>
    <path d="M-20.0 -4.65 L-20.0 -4.75 -20.0 -4.8 -14.85 -4.8 -20.0 -4.65 M-5.95 -4.85 L-4.7 -5.0 -4.7 -4.9 -4.7 -4.8 -5.95 -4.85" fill="#223a26" fill-opacity="0.3647059" fill-rule="evenodd" stroke="none"/>
    <path d="M-4.4 -3.0 Q-4.1 -2.5 -4.25 -2.15 L-4.6 -1.7 -5.6 -1.6 Q-8.0 -2.15 -10.35 -2.85 L-12.1 -3.7 -7.2 -3.75 -7.1 -3.75 -6.95 -3.75 -6.85 -3.75 Q-5.3 -3.85 -4.5 -3.2 L-4.5 -3.15 -4.4 -3.0 M-6.15 -2.8 L-5.5 -2.6 Q-4.3 -2.35 -4.65 -3.05 -4.8 -3.5 -5.35 -3.5 L-8.05 -3.35 -6.7 -2.9 Q-6.5 -2.75 -6.45 -2.9 L-6.15 -2.8" fill="#006402" fill-rule="evenodd" stroke="none"/>
    <path d="M-16.1 -2.0 Q-10.8 -0.4 -5.8 1.55 L-5.75 1.6 Q-5.25 1.9 -5.25 2.6 -5.25 3.25 -5.65 3.4 L-6.2 3.6 Q-5.65 3.3 -5.4 2.7 -5.35 2.3 -5.55 2.15 -6.75 1.25 -8.55 0.75 L-12.35 -0.35 Q-14.5 -0.95 -16.1 -2.0 M-6.8 3.8 L-6.85 3.85 -6.85 3.8 -6.8 3.8" fill="#059003" fill-rule="evenodd" stroke="none"/>
    <path d="M-16.6 -4.5 L-10.65 -4.45 -4.7 -4.65 -4.5 -4.5 -4.5 -4.4 -4.55 -4.45 -4.95 -4.5 -5.05 -4.5 -8.95 -4.35 -8.95 -4.4 Q-13.05 -4.2 -16.6 -4.5" fill="#128712" fill-rule="evenodd" stroke="none"/>
    <path d="M-2.15 -9.45 Q-2.15 -6.5 -2.3 -4.2 -2.3 -3.95 -2.55 -3.95 -3.75 -4.35 -3.8 -5.95 L-3.8 -6.0 -2.3 -10.55 -2.25 -10.55 -2.15 -9.45" fill="#004301" fill-rule="evenodd" stroke="none"/>
    <path d="M-4.4 -3.0 L-4.5 -3.15 -4.5 -3.2 Q-5.3 -3.85 -6.85 -3.75 L-6.95 -3.75 -7.1 -3.75 -7.85 -3.95 -9.55 -4.2 Q-8.8 -4.1 -9.0 -4.35 L-8.95 -4.35 -5.05 -4.5 -4.95 -4.5 -4.95 -4.45 -5.65 -4.0 -4.5 -3.2 -3.7 -2.5 -3.35 -2.4 -4.35 -4.1 -3.5 -3.2 -3.2 -2.9 Q-2.55 -2.45 -3.1 -2.15 L-3.2 -2.15 Q-3.95 -2.3 -4.4 -3.0" fill="#31ab30" fill-rule="evenodd" stroke="none"/>
    <path d="M-6.15 -2.8 L-6.45 -2.9 Q-6.5 -2.75 -6.7 -2.9 L-8.05 -3.35 -5.35 -3.5 Q-4.8 -3.5 -4.65 -3.05 -4.3 -2.35 -5.5 -2.6 L-6.15 -2.8" fill="#004701" fill-rule="evenodd" stroke="none"/>
    <path d="M-4.95 -4.5 L-4.55 -4.45 -4.5 -4.4 -4.35 -4.15 -4.35 -4.1 -3.35 -2.4 -3.7 -2.5 -4.5 -3.2 -5.65 -4.0 -4.95 -4.45 -4.95 -4.5" fill="#62e864" fill-rule="evenodd" stroke="none"/>
    <path d="M-11.05 15.3 L-11.05 15.2 -11.05 15.1 -7.9 4.7 -7.85 4.7 -6.85 4.65 -6.4 4.35 -4.8 4.05 Q-3.95 4.95 -4.2 6.0 L-4.25 5.95 -7.15 10.05 -9.95 14.25 -9.95 14.15 -7.65 5.5 -7.7 5.5 -11.1 15.95 -11.1 15.9 -11.1 15.6 -11.0 15.35 -11.05 15.3 M-5.25 4.95 L-5.35 4.95 Q-6.3 4.85 -7.2 5.45 L-8.4 9.35 Q-8.45 9.75 -8.25 9.6 L-8.05 9.35 -6.75 7.4 -5.25 4.95" fill="#036904" fill-opacity="0.9843137" fill-rule="evenodd" stroke="none"/>
    <path d="M-9.95 14.25 L-7.15 10.05 -4.25 5.95 -4.2 6.0 -6.75 10.25 -9.45 14.3 Q-9.8 14.9 -10.1 14.7 L-9.95 14.3 -9.95 14.25" fill="#049203" fill-rule="evenodd" stroke="none"/>
    <path d="M-10.2 16.05 L-9.45 14.7 -3.85 6.05 -3.8 6.05 Q-3.3 5.6 -2.8 6.15 -2.3 6.6 -2.75 7.1 L-4.8 9.7 -10.5 18.15 -10.5 18.2 -10.55 18.25 -11.5 18.95 -11.55 18.95 -11.55 18.2 -10.55 16.7 -10.5 16.7 -10.5 16.75 -11.25 17.9 Q-10.75 18.05 -10.3 17.35 L-4.75 8.75 -3.8 6.7 -6.65 10.7 -6.65 10.8 -6.7 10.8 -10.05 15.95 -10.05 16.05 -10.05 16.15 -10.1 16.15 -10.2 16.2 -10.2 16.15 -10.2 16.05" fill="#3ed33c" fill-rule="evenodd" stroke="none"/>
    <path d="M-5.25 4.95 L-6.75 7.4 -8.05 9.35 -8.25 9.6 Q-8.45 9.75 -8.4 9.35 L-7.2 5.45 Q-6.3 4.85 -5.35 4.95 L-5.25 4.95" fill="#004601" fill-rule="evenodd" stroke="none"/>
    <path d="M-10.05 16.15 L-10.05 16.05 -10.05 15.95 -6.7 10.8 -6.65 10.8 Q-6.45 10.75 -6.5 10.85 L-10.15 16.9 Q-10.45 17.4 -10.55 17.0 L-10.05 16.2 -10.05 16.15" fill="#6efb6f" fill-rule="evenodd" stroke="none"/>
    <path d="M-10.2 16.2 L-10.1 16.15 -10.05 16.15 -10.05 16.2 -10.55 17.0 Q-10.45 17.4 -10.15 16.9 L-6.5 10.85 Q-6.45 10.75 -6.65 10.8 L-6.65 10.7 -3.8 6.7 -4.75 8.75 -10.3 17.35 Q-10.75 18.05 -11.25 17.9 L-10.5 16.75 -10.5 16.7 -10.5 16.6 -10.2 16.25 -10.2 16.2" fill="#5bee5b" fill-rule="evenodd" stroke="none"/>
    <path d="M-10.2 16.05 L-10.2 16.15 -10.2 16.2 -10.2 16.25 -10.5 16.6 -10.5 16.7 -10.55 16.7 -11.55 18.2 -11.55 18.95 -11.5 18.95 -11.5 19.0 Q-11.8 19.35 -12.05 19.25 L-11.6 18.0 -11.55 17.9 -9.55 11.7 -9.5 11.65 Q-10.15 13.8 -10.5 16.5 L-10.45 16.4 -10.2 16.05" fill="#35c334" fill-rule="evenodd" stroke="none"/>
    <path d="M-4.7 13.25 L-6.1 14.35 Q-6.6 14.9 -6.7 14.55 L-1.95 7.75 Q-1.65 7.3 -1.05 7.3 -0.25 8.15 -0.65 9.5 L-1.05 10.15 -1.05 10.2 -4.7 13.2 -4.7 13.25 M-1.2 7.8 L-1.25 7.85 -3.05 10.0 Q-2.9 10.2 -3.3 10.6 L-3.8 11.3 -4.7 12.65 -4.75 12.75 Q-2.8 11.4 -1.05 9.8 -0.75 8.8 -1.2 7.8" fill="#016302" fill-rule="evenodd" stroke="none"/>
    <path d="M-1.2 7.8 Q-0.75 8.8 -1.05 9.8 -2.8 11.4 -4.75 12.75 L-4.7 12.65 -3.8 11.3 -3.3 10.6 Q-2.9 10.2 -3.05 10.0 L-1.25 7.85 -1.2 7.8" fill="#003f01" fill-rule="evenodd" stroke="none"/>
    <path d="M-4.4 13.25 L-4.5 13.3 -4.7 13.25 -4.7 13.2 -1.05 10.2 -1.05 10.15 Q-0.75 10.3 -0.95 10.65 L-0.95 10.7 -1.0 10.7 -4.4 13.25" fill="#1b831a" fill-rule="evenodd" stroke="none"/>
    <path d="M-0.2 10.55 L-4.3 13.7 -12.3 19.9 -12.3 20.0 -12.35 20.0 -12.4 19.6 Q-11.65 17.55 -11.05 15.3 L-11.0 15.35 -11.1 15.6 -11.1 15.9 -11.1 15.95 -11.1 16.05 -11.55 17.65 -11.55 17.8 -11.55 17.9 -11.6 18.0 -12.05 19.25 Q-11.8 19.35 -11.5 19.0 L-11.5 18.95 -10.55 18.25 -10.5 18.2 -8.75 16.9 -8.7 16.85 -4.45 13.35 -4.4 13.25 -1.0 10.7 -0.95 10.7 -0.55 10.4 -0.5 10.4 Q-0.1 10.25 -0.2 10.55" fill="#08560b" fill-opacity="0.9019608" fill-rule="evenodd" stroke="none"/>
    <path d="M8.5 16.85 L8.4 16.85 5.8 14.9 4.0 13.15 2.1 11.6 Q1.4 10.9 0.65 11.0 L0.6 11.0 Q0.3 10.7 -0.2 10.55 -0.1 10.25 -0.5 10.4 L-0.5 10.3 Q-0.2 10.25 0.05 10.05 L0.4 9.45 Q0.6 8.55 0.95 7.75 1.55 7.1 2.5 6.95 L2.6 6.95 Q4.4 8.75 5.75 10.95 L6.4 11.9 11.0 18.4 10.95 18.35 Q9.75 17.35 8.5 16.85 M1.85 9.15 Q1.4 8.3 1.05 9.1 L1.05 9.25 1.15 9.6 Q2.6 11.4 4.5 12.55 L4.45 12.2 4.45 12.15 Q4.85 11.9 4.3 11.6 L4.25 11.75 3.85 10.75 Q3.55 10.8 3.45 10.55 L3.2 10.55 3.15 10.2 Q3.5 9.55 2.5 9.25 2.6 8.45 2.15 9.1 L1.85 9.15" fill="#045c02" fill-opacity="0.99607843" fill-rule="evenodd" stroke="none"/>
    <path d="M6.45 3.8 L6.7 4.05 6.9 4.4 Q5.45 4.25 4.55 3.15 L4.5 3.1 Q5.65 3.1 6.45 3.8" fill="#40c941" fill-rule="evenodd" stroke="none"/>
    <path d="M8.1 6.05 L10.0 12.15 10.0 12.25 10.0 12.4 10.0 12.45 9.95 12.45 9.9 12.45 9.65 11.5 9.2 9.95 8.6 8.55 7.15 6.05 8.1 6.15 8.1 6.05" fill="#054407" fill-opacity="0.92941177" fill-rule="evenodd" stroke="none"/>
    <path d="M4.3 7.75 L10.0 16.25 10.1 16.6 4.1 8.35 2.75 5.9 Q3.35 5.65 3.7 6.5 L4.3 7.75" fill="#29a027" fill-rule="evenodd" stroke="none"/>
    <path d="M1.85 9.15 L2.15 9.1 Q2.6 8.45 2.5 9.25 3.5 9.55 3.15 10.2 L3.2 10.55 3.45 10.55 Q3.55 10.8 3.85 10.75 L4.25 11.75 4.3 11.6 Q4.85 11.9 4.45 12.15 L4.45 12.2 4.5 12.55 Q2.6 11.4 1.15 9.6 L1.05 9.25 1.05 9.1 Q1.4 8.3 1.85 9.15" fill="#034300" fill-rule="evenodd" stroke="none"/>
    <path d="M5.8 14.9 L5.75 14.85 0.65 11.0 Q1.4 10.9 2.1 11.6 L4.0 13.15 5.8 14.9" fill="#08470a" fill-opacity="0.89411765" fill-rule="evenodd" stroke="none"/>
    <path d="M11.35 16.85 L11.3 16.85 10.95 16.05 10.75 15.95 10.7 15.85 8.85 13.35 6.75 10.5 Q5.2 8.5 3.95 6.15 4.95 5.55 5.65 6.65 L5.8 7.35 6.55 8.25 6.95 9.0 6.95 9.05 6.95 9.2 8.1 10.45 Q8.25 11.0 8.65 11.25 L10.15 13.6 10.2 13.65 9.95 12.45 10.0 12.45 11.3 16.8 11.35 16.85" fill="#007700" fill-rule="evenodd" stroke="none"/>
    <path d="M10.0 12.25 L12.35 19.6 12.25 19.55 8.5 16.85 Q9.75 17.35 10.95 18.35 L11.0 18.4 11.95 19.05 11.35 16.85 11.3 16.8 10.0 12.45 10.0 12.4 10.0 12.25" fill="#0a4c0d" fill-opacity="0.87058824" fill-rule="evenodd" stroke="none"/>
  </g>
</svg>
