<?xml version="1.0" encoding="UTF-8" standalone="no"?>
<svg xmlns:xlink="http://www.w3.org/1999/xlink" height="40.0px" width="40.0px" xmlns="http://www.w3.org/2000/svg">
  <g transform="matrix(1.0, 0.0, 0.0, 1.0, 20.0, 20.0)">
    <path d="M0.65 -16.75 L0.65 -16.8 -0.1 -19.05 -0.1 -19.0 -1.25 -15.35 -2.75 -10.55 Q-3.45 -8.15 -4.4 -5.95 L-4.4 -6.0 -4.4 -6.1 -1.0 -16.9 -0.05 -20.0 3.25 -9.2 4.65 -4.8 4.7 -4.75 4.75 -4.75 4.8 -4.65 4.8 -4.6 4.6 -4.55 Q3.65 -4.4 2.8 -3.6 L2.8 -3.55 2.45 -3.5 Q1.5 -3.7 1.15 -5.0 L1.2 -6.2 1.3 -10.95 Q1.4 -14.4 0.65 -16.75" fill="#003884" fill-opacity="0.9764706" fill-rule="evenodd" stroke="none"/>
    <path d="M-1.25 -15.35 L-0.1 -19.0 -0.1 -19.05 0.65 -16.8 0.65 -16.75 0.75 -11.85 0.9 -5.85 Q0.95 -5.05 1.15 -4.2 1.5 -3.45 2.3 -3.2 L2.45 -3.2 2.8 -3.55 2.8 -3.6 Q3.65 -4.4 4.6 -4.55 L4.8 -4.6 9.8 -4.5 14.8 -4.5 19.2 -4.4 15.4 -3.95 15.3 -3.9 15.3 -3.85 Q10.15 -1.9 4.35 -0.55 4.6 0.15 5.3 0.45 L5.35 0.5 15.85 -3.05 18.8 -4.0 18.75 -3.95 18.2 -3.55 16.55 -2.7 11.1 -0.85 10.0 -0.55 Q7.05 0.25 4.95 1.75 L4.2 -0.1 Q3.6 -1.15 3.75 -1.55 4.1 -0.95 4.75 -1.0 6.4 -1.15 7.65 -1.65 L11.6 -2.95 Q13.15 -3.35 13.8 -4.25 L11.4 -4.2 4.2 -3.95 2.8 -2.15 Q1.7 -2.9 0.05 -3.1 L-1.05 -2.95 Q-1.85 -2.55 -1.85 -3.35 -1.05 -4.55 -1.1 -6.4 L-1.15 -7.35 Q-1.1 -10.85 -1.35 -14.05 L-1.4 -14.05 -1.5 -14.1 -1.25 -15.35 M19.2 -4.35 L19.2 -4.4 19.25 -4.4 19.2 -4.35" fill="#0471f0" fill-rule="evenodd" stroke="none"/>
    <path d="M0.65 -16.75 Q1.4 -14.4 1.3 -10.95 L1.2 -6.2 1.15 -5.0 Q1.5 -3.7 2.45 -3.5 L2.8 -3.55 2.45 -3.2 2.3 -3.2 Q1.5 -3.45 1.15 -4.2 0.95 -5.05 0.9 -5.85 L0.75 -11.85 0.65 -16.75" fill="#0056bc" fill-rule="evenodd" stroke="none"/>
    <path d="M-4.4 -5.95 Q-3.45 -8.15 -2.75 -10.55 L-1.25 -15.35 -1.5 -14.1 -1.4 -14.05 -1.35 -14.05 Q-1.1 -10.85 -1.15 -7.35 L-1.1 -6.4 Q-1.05 -4.55 -1.85 -3.35 -1.85 -2.55 -1.05 -2.95 L0.05 -3.1 Q1.7 -2.9 2.8 -2.15 L4.2 -3.95 11.4 -4.2 13.8 -4.25 Q13.15 -3.35 11.6 -2.95 L7.65 -1.65 Q6.4 -1.15 4.75 -1.0 4.1 -0.95 3.75 -1.55 3.6 -1.15 4.2 -0.1 L4.95 1.75 Q7.05 0.25 10.0 -0.55 L11.1 -0.85 16.55 -2.7 18.2 -3.55 Q15.95 -1.4 12.8 -0.25 L7.4 1.45 Q6.4 1.8 5.45 2.7 L6.45 3.8 7.9 4.55 7.9 4.6 7.65 4.8 7.8 5.35 7.8 5.45 7.05 5.35 Q6.5 4.95 6.5 5.35 6.15 6.1 6.6 6.6 L8.65 9.6 Q9.75 11.45 10.4 13.65 L11.95 19.05 Q10.45 18.2 9.65 17.05 L9.6 17.1 Q7.35 15.9 5.5 14.35 L1.75 11.1 Q1.0 10.4 -0.05 10.55 L-0.1 10.55 -0.2 10.55 Q-0.7 10.55 -1.2 10.9 L-9.1 17.15 -4.65 10.4 Q-3.3 8.2 -1.35 6.65 L-1.45 6.6 -3.85 5.05 Q-3.95 5.8 -4.45 6.55 L-10.05 15.05 -8.35 7.75 -8.4 7.75 -11.3 16.55 -11.3 16.75 -11.3 16.8 -11.35 16.8 -11.85 18.55 -11.85 18.45 -11.85 18.05 -11.85 18.0 -11.85 17.8 Q-10.15 12.4 -8.6 6.85 L-7.85 4.7 Q-7.1 4.85 -6.25 4.35 L-4.5 4.25 -4.45 4.25 Q-4.6 3.35 -5.1 2.7 -5.2 3.2 -5.65 3.35 L-7.85 4.45 -7.95 4.45 -8.2 4.3 Q-7.6 3.85 -6.7 3.65 -5.9 3.5 -5.65 2.7 L-5.7 2.55 -5.7 2.4 Q-6.8 1.5 -8.15 1.1 L-11.5 0.15 Q-14.25 -0.6 -16.25 -2.1 -10.75 -0.45 -5.85 1.55 L-5.5 1.85 -5.2 2.05 -4.65 0.1 -4.1 -1.35 -4.2 -1.35 -7.45 -1.25 -10.1 -2.2 -14.45 -3.75 -12.15 -4.05 -4.95 -3.6 Q-4.65 -3.7 -4.6 -3.45 L-4.55 -3.45 -4.55 -3.4 -3.5 -2.0 -3.4 -2.0 Q-2.65 -1.95 -2.7 -2.8 L-3.85 -3.65 -4.05 -3.8 -4.1 -3.9 -4.15 -3.9 -4.3 -4.5 Q-4.2 -5.75 -4.65 -4.75 L-4.65 -4.8 -4.65 -5.15 -4.65 -5.2 -4.65 -5.4 -4.45 -5.85 -4.4 -5.95 M4.65 -3.75 L4.6 -3.75 3.9 -3.05 Q3.8 -2.4 4.35 -1.85 L4.85 -1.9 Q8.2 -2.65 11.5 -3.95 L11.4 -3.95 4.65 -3.75 M-10.55 -3.6 L-10.5 -3.45 -8.0 -2.7 Q-6.5 -2.1 -5.1 -1.95 -4.25 -2.15 -4.4 -2.65 L-4.4 -2.85 -4.75 -3.2 -8.4 -3.7 -10.55 -3.6 M-1.85 -9.45 Q-1.85 -10.65 -2.1 -11.45 L-2.1 -11.4 -3.95 -5.7 -3.95 -5.6 Q-3.8 -3.85 -2.55 -3.75 -2.0 -3.95 -2.0 -4.6 L-1.85 -9.45 M-5.05 4.8 L-5.05 4.75 Q-6.15 4.25 -7.05 4.95 -8.3 8.05 -9.1 11.6 L-9.05 11.65 -7.35 9.2 -5.65 6.8 Q-4.9 5.85 -5.05 4.8 M-1.4 7.65 L-1.55 7.75 -5.8 13.65 -5.75 13.7 -0.95 10.0 -0.75 9.3 Q-0.45 8.05 -1.2 7.5 L-1.4 7.65 M-0.7 6.7 L-0.6 7.45 -0.1 10.05 0.3 8.1 0.85 7.4 1.05 6.7 1.0 6.7 Q0.15 6.3 -0.7 6.7 M6.15 3.65 L5.85 3.4 Q5.2 2.75 4.35 3.0 4.3 3.3 4.4 3.35 5.45 4.15 6.95 4.45 L6.15 3.65 M4.2 7.5 L3.65 6.3 Q3.3 5.05 2.45 6.05 L4.4 8.75 Q7.25 13.05 10.4 16.95 L10.05 15.9 4.2 7.5 M1.2 8.0 L1.2 7.95 0.45 9.75 0.5 10.25 Q0.7 9.85 1.05 10.15 L8.8 16.4 Q9.0 15.9 8.45 15.3 L7.75 14.3 6.2 12.4 6.25 12.35 4.5 9.65 Q3.65 8.4 2.35 7.35 L1.7 7.95 1.2 8.0" fill="#004ba2" fill-opacity="0.99607843" fill-rule="evenodd" stroke="none"/>
    <path d="M4.65 -3.75 L11.4 -3.95 11.5 -3.95 Q8.2 -2.65 4.85 -1.9 L4.35 -1.85 Q3.8 -2.4 3.9 -3.05 L4.6 -3.75 4.65 -3.75 M-1.4 7.65 L-1.2 7.5 Q-0.45 8.05 -0.75 9.3 L-0.95 10.0 -5.75 13.7 -5.8 13.65 -1.55 7.75 -1.4 7.65" fill="#003275" fill-rule="evenodd" stroke="none"/>
    <path d="M4.75 -4.75 L4.7 -4.75 4.65 -4.8 18.8 -4.9 20.0 -4.65 16.0 -1.55 7.9 4.55 6.45 3.8 5.45 2.7 Q6.4 1.8 7.4 1.45 L12.8 -0.25 Q15.95 -1.4 18.2 -3.55 L18.75 -3.95 18.8 -4.0 19.05 -4.25 19.1 -4.25 Q19.9 -4.65 18.8 -4.7 L4.75 -4.75" fill="#013377" fill-opacity="0.9372549" fill-rule="evenodd" stroke="none"/>
    <path d="M4.8 -4.6 L4.8 -4.65 4.75 -4.75 18.8 -4.7 Q19.9 -4.65 19.1 -4.25 L19.1 -4.35 19.2 -4.35 19.25 -4.4 19.2 -4.4 14.8 -4.5 9.8 -4.5 4.8 -4.6" fill="#0048ba" fill-rule="evenodd" stroke="none"/>
    <path d="M18.8 -4.0 L15.85 -3.05 5.35 0.5 5.3 0.45 Q4.6 0.15 4.35 -0.55 10.15 -1.9 15.3 -3.85 L15.3 -3.9 15.4 -3.95 19.2 -4.4 19.2 -4.35 19.1 -4.35 19.1 -4.25 19.05 -4.25 18.8 -4.0 M4.75 -0.4 Q4.7 -0.15 4.95 -0.2 10.2 -1.45 15.5 -3.05 L16.8 -3.4 Q17.65 -3.55 18.0 -4.1 L15.8 -3.6 4.75 -0.4" fill="#318ffe" fill-rule="evenodd" stroke="none"/>
    <path d="M4.75 -0.4 L15.8 -3.6 18.0 -4.1 Q17.65 -3.55 16.8 -3.4 L15.5 -3.05 Q10.2 -1.45 4.95 -0.2 4.7 -0.15 4.75 -0.4" fill="#79b5ff" fill-rule="evenodd" stroke="none"/>
    <path d="M6.15 3.65 L6.95 4.45 Q5.45 4.15 4.4 3.35 4.3 3.3 4.35 3.0 5.2 2.75 5.85 3.4 L6.15 3.65" fill="#1e7ff5" fill-rule="evenodd" stroke="none"/>
    <path d="M7.8 5.45 L8.95 8.65 12.4 19.6 Q10.15 18.2 8.05 16.6 L-0.05 10.55 Q1.0 10.4 1.75 11.1 L5.5 14.35 Q7.35 15.9 9.6 17.1 L9.65 17.05 Q10.45 18.2 11.95 19.05 L10.4 13.65 Q9.75 11.45 8.65 9.6 L6.6 6.6 Q6.15 6.1 6.5 5.35 6.5 4.95 7.05 5.35 L7.8 5.45" fill="#00347b" fill-opacity="0.94509804" fill-rule="evenodd" stroke="none"/>
    <path d="M4.2 7.5 L10.05 15.9 10.4 16.95 Q7.25 13.05 4.4 8.75 L2.45 6.05 Q3.3 5.05 3.65 6.3 L4.2 7.5" fill="#0068e1" fill-rule="evenodd" stroke="none"/>
    <path d="M-0.7 6.7 Q0.15 6.3 1.0 6.7 L1.05 6.7 0.85 7.4 0.3 8.1 -0.1 10.05 -0.6 7.45 -0.7 6.7" fill="#006be4" fill-rule="evenodd" stroke="none"/>
    <path d="M1.2 8.0 L1.7 7.95 2.35 7.35 Q3.65 8.4 4.5 9.65 L6.25 12.35 6.2 12.4 7.75 14.3 8.45 15.3 Q9.0 15.9 8.8 16.4 L1.05 10.15 Q0.7 9.85 0.5 10.25 L0.45 9.75 1.2 7.95 1.2 8.0" fill="#003d7a" fill-rule="evenodd" stroke="none"/>
    <path d="M-16.1 -3.7 L-16.1 -3.75 -17.7 -3.95 -16.85 -3.3 -9.6 -0.95 -9.4 -0.9 -9.4 -0.85 Q-7.2 -0.45 -5.65 0.55 L-5.55 0.65 Q-5.15 0.65 -5.05 -0.1 L-4.95 -0.25 -5.0 -0.35 -8.0 -1.2 -16.1 -3.7 M-17.75 -3.2 L-17.8 -3.25 -19.4 -4.5 -17.9 -4.5 -17.85 -4.5 -7.15 -1.0 -4.4 -1.05 -5.25 1.45 Q-6.1 0.8 -7.6 0.3 L-17.1 -2.75 -17.15 -2.75 Q-17.55 -2.9 -17.75 -3.2" fill="#0f7ffb" fill-rule="evenodd" stroke="none"/>
    <path d="M-16.1 -3.7 L-16.15 -3.7 -17.1 -3.75 Q-15.25 -2.85 -13.15 -2.25 L-13.1 -2.25 -9.7 -1.05 -9.65 -1.05 -9.6 -0.95 -16.85 -3.3 -17.7 -3.95 -16.1 -3.75 -16.1 -3.7" fill="#4499ff" fill-rule="evenodd" stroke="none"/>
    <path d="M-13.1 -2.25 L-13.15 -2.25 Q-15.25 -2.85 -17.1 -3.75 L-16.15 -3.7 -16.1 -3.7 -8.0 -1.2 -5.0 -0.35 -4.95 -0.25 -5.05 -0.1 Q-5.15 0.65 -5.55 0.65 L-5.65 0.55 Q-7.2 -0.45 -9.4 -0.85 L-9.4 -0.9 -9.6 -0.95 -9.65 -1.05 -6.75 -0.2 -5.25 -0.25 -5.4 -0.4 Q-11.1 -1.8 -16.4 -3.6 -14.85 -2.85 -13.1 -2.3 L-13.1 -2.25" fill="#58a3ff" fill-rule="evenodd" stroke="none"/>
    <path d="M-17.9 -3.05 L-18.0 -3.05 -19.9 -4.5 -19.9 -4.6 -19.9 -4.75 -5.85 -4.7 Q-5.1 -4.7 -4.7 -5.0 L-4.7 -5.05 -4.7 -5.15 -4.65 -5.15 -4.65 -4.8 -4.65 -4.75 -6.25 -4.45 -7.95 -4.5 -12.45 -4.45 -17.85 -4.5 -17.9 -4.5 -19.4 -4.5 -17.8 -3.25 -17.75 -3.2 -17.85 -3.2 -17.9 -3.2 -17.9 -3.15 -17.9 -3.05" fill="#003d9b" fill-opacity="0.9882353" fill-rule="evenodd" stroke="none"/>
    <path d="M-19.9 -4.5 L-20.0 -4.5 -20.0 -4.6 -20.0 -4.8 -5.95 -4.85 -4.7 -5.0 Q-5.1 -4.7 -5.85 -4.7 L-19.9 -4.75 -19.9 -4.6 -19.9 -4.5" fill="#0e2658" fill-opacity="0.3647059" fill-rule="evenodd" stroke="none"/>
    <path d="M-8.2 4.3 L-9.85 3.1 -17.9 -3.05 -17.9 -3.15 -17.9 -3.2 -17.85 -3.2 -17.75 -3.2 Q-17.55 -2.9 -17.15 -2.75 L-17.1 -2.75 -16.3 -2.1 -16.25 -2.1 Q-14.25 -0.6 -11.5 0.15 L-8.15 1.1 Q-6.8 1.5 -5.7 2.4 L-5.7 2.55 -5.65 2.7 Q-5.9 3.5 -6.7 3.65 -7.6 3.85 -8.2 4.3" fill="#003378" fill-opacity="0.98039216" fill-rule="evenodd" stroke="none"/>
    <path d="M-17.85 -4.5 L-12.45 -4.45 -7.95 -4.5 -6.25 -4.45 -4.65 -4.75 Q-4.2 -5.75 -4.3 -4.5 L-4.15 -3.9 -4.45 -4.3 -4.5 -4.35 Q-5.3 -4.6 -6.05 -4.0 -5.6 -3.75 -4.95 -3.65 L-4.95 -3.6 -12.15 -4.05 -14.45 -3.75 -10.1 -2.2 -7.45 -1.25 -4.2 -1.35 -4.1 -1.35 -4.65 0.1 -5.2 2.05 -5.5 1.85 -5.85 1.55 Q-10.75 -0.45 -16.25 -2.1 L-16.3 -2.1 -17.1 -2.75 -7.6 0.3 Q-6.1 0.8 -5.25 1.45 L-4.4 -1.05 -7.15 -1.0 -17.85 -4.5 M-4.05 -3.8 L-3.85 -3.65 -2.7 -2.8 Q-2.65 -1.95 -3.4 -2.0 L-3.5 -2.0 -4.55 -3.4 -4.55 -3.45 Q-4.15 -2.75 -3.4 -2.4 L-3.25 -2.6 -4.05 -3.8" fill="#0067de" fill-rule="evenodd" stroke="none"/>
    <path d="M-10.55 -3.6 L-8.4 -3.7 -4.75 -3.2 -4.4 -2.85 -4.4 -2.65 Q-4.25 -2.15 -5.1 -1.95 -6.5 -2.1 -8.0 -2.7 L-10.5 -3.45 -10.55 -3.6" fill="#00367d" fill-rule="evenodd" stroke="none"/>
    <path d="M-9.65 -1.05 L-9.7 -1.05 -13.1 -2.25 -13.1 -2.3 Q-14.85 -2.85 -16.4 -3.6 -11.1 -1.8 -5.4 -0.4 L-5.25 -0.25 -6.75 -0.2 -9.65 -1.05" fill="#8abfff" fill-rule="evenodd" stroke="none"/>
    <path d="M-1.85 -9.45 L-2.0 -4.6 Q-2.0 -3.95 -2.55 -3.75 -3.8 -3.85 -3.95 -5.6 L-3.95 -5.7 -2.1 -11.4 -2.1 -11.45 Q-1.85 -10.65 -1.85 -9.45" fill="#003376" fill-rule="evenodd" stroke="none"/>
    <path d="M-4.95 -3.6 L-4.95 -3.65 Q-5.6 -3.75 -6.05 -4.0 -5.3 -4.6 -4.5 -4.35 L-4.45 -4.3 -4.15 -3.9 -4.1 -3.9 -4.05 -3.8 -3.25 -2.6 -3.4 -2.4 Q-4.15 -2.75 -4.55 -3.45 L-4.6 -3.45 Q-4.65 -3.7 -4.95 -3.6" fill="#539ffe" fill-rule="evenodd" stroke="none"/>
    <path d="M-5.05 4.8 Q-4.9 5.85 -5.65 6.8 L-7.35 9.2 -9.05 11.65 -9.1 11.6 Q-8.3 8.05 -7.05 4.95 -6.15 4.25 -5.05 4.75 L-5.05 4.8" fill="#00357c" fill-rule="evenodd" stroke="none"/>
    <path d="M-7.85 4.7 L-7.85 4.65 -7.85 4.45 -5.65 3.35 Q-5.2 3.2 -5.1 2.7 -4.6 3.35 -4.45 4.25 L-4.5 4.25 -6.25 4.35 Q-7.1 4.85 -7.85 4.7" fill="#2083f2" fill-rule="evenodd" stroke="none"/>
    <path d="M-5.4 8.65 L-5.3 8.45 -4.65 7.55 -3.4 6.4 Q-3.2 6.45 -3.25 6.6 L-3.4 6.85 -5.15 9.4 -10.8 17.95 Q-11.3 18.6 -11.45 18.05 L-9.6 15.3 -9.55 15.3 -9.6 15.35 -10.8 17.35 Q-10.6 17.5 -10.3 17.0 L-6.35 10.75 -6.45 10.75 -6.8 10.95 -5.4 8.65" fill="#55a2ff" fill-rule="evenodd" stroke="none"/>
    <path d="M-4.65 7.55 L-5.3 8.45 -5.4 8.65 -10.55 16.4 Q-10.5 15.2 -10.05 13.95 -9.6 12.75 -9.55 11.6 L-9.6 11.65 -11.3 16.8 -11.3 16.75 -11.3 16.55 -8.4 7.75 -8.35 7.75 -10.05 15.05 -4.45 6.55 Q-3.95 5.8 -3.85 5.05 L-1.45 6.6 -1.35 6.65 Q-3.3 8.2 -4.65 10.4 L-9.1 17.15 -9.15 17.15 -10.25 18.05 -8.2 15.1 -2.5 6.7 -2.4 6.65 Q-2.55 6.2 -3.25 5.85 -3.8 5.75 -4.05 6.4 L-4.65 7.55" fill="#006ce5" fill-rule="evenodd" stroke="none"/>
    <path d="M-5.4 8.65 L-6.8 10.95 -6.85 10.95 -9.55 15.2 -9.55 15.3 -9.6 15.3 -11.45 18.05 Q-11.3 18.6 -10.8 17.95 L-5.15 9.4 -3.4 6.85 -3.25 6.6 Q-3.2 6.45 -3.4 6.4 L-4.65 7.55 -4.05 6.4 Q-3.8 5.75 -3.25 5.85 -2.55 6.2 -2.4 6.65 L-2.5 6.7 -8.2 15.1 -10.25 18.05 -10.3 18.1 -12.1 19.25 -11.85 18.6 -11.85 18.55 -11.35 16.8 -11.3 16.8 -9.6 11.65 -9.55 11.6 Q-9.6 12.75 -10.05 13.95 -10.5 15.2 -10.55 16.4 L-5.4 8.65" fill="#1b85fe" fill-rule="evenodd" stroke="none"/>
    <path d="M-6.8 10.95 L-6.45 10.75 -6.35 10.75 -10.3 17.0 Q-10.6 17.5 -10.8 17.35 L-9.6 15.35 -9.55 15.3 -9.55 15.2 -6.85 10.95 -6.8 10.95" fill="#77b4ff" fill-rule="evenodd" stroke="none"/>
    <path d="M-0.2 10.55 L-4.3 13.7 -12.3 19.9 -12.3 20.0 -12.35 20.0 -12.4 19.6 -11.9 18.05 -11.85 18.05 -11.85 18.45 -11.85 18.55 -11.85 18.6 -12.1 19.25 -10.3 18.1 -10.25 18.05 -9.15 17.15 -9.1 17.15 -1.2 10.9 Q-0.7 10.55 -0.2 10.55" fill="#01337e" fill-opacity="0.9019608" fill-rule="evenodd" stroke="none"/>
  </g>
</svg>
