<?xml version="1.0" encoding="UTF-8" standalone="no"?>
<svg xmlns:xlink="http://www.w3.org/1999/xlink" height="40.0px" width="40.0px" xmlns="http://www.w3.org/2000/svg">
  <g transform="matrix(1.0, 0.0, 0.0, 1.0, 20.0, 20.0)">
    <path d="M0.05 -19.1 L0.05 -19.15 -0.25 -19.5 -0.25 -19.55 -0.25 -19.65 Q0.1 -20.55 0.35 -19.25 L1.25 -15.95 2.2 -12.75 2.15 -12.75 2.05 -12.75 Q2.6 -11.25 2.6 -9.95 2.55 -7.1 2.75 -4.5 L2.8 -4.35 4.15 -5.3 4.45 -5.55 4.65 -5.0 4.65 -4.9 4.65 -4.85 4.65 -4.8 4.6 -4.75 4.5 -4.75 2.75 -3.7 2.75 -3.65 2.55 -3.65 Q1.65 -3.8 1.3 -4.9 L1.4 -10.5 Q1.5 -13.65 0.95 -15.8 L0.95 -15.85 0.5 -17.4 0.5 -17.45 Q0.2 -18.2 0.05 -19.1" fill="#645d00" fill-opacity="0.9843137" fill-rule="evenodd" stroke="none"/>
    <path d="M0.05 -19.1 L0.0 -19.05 -0.2 -19.0 -0.2 -18.9 -0.2 -18.85 -0.2 -18.75 -1.1 -15.95 -1.1 -15.85 -1.1 -15.8 -1.15 -15.8 Q-1.2 -15.35 -1.4 -15.05 L-1.4 -15.0 -1.4 -14.9 -1.9 -13.4 -2.2 -11.85 Q-2.3 -11.05 -2.1 -11.95 L-1.9 -12.25 -1.85 -12.25 -1.65 -5.3 Q-1.65 -3.95 -2.55 -3.65 L-2.65 -3.65 Q-3.6 -3.7 -4.1 -4.9 L-3.35 -8.2 Q-3.85 -6.7 -4.55 -5.5 L-4.55 -5.55 -4.55 -5.65 -1.1 -16.5 -0.25 -19.5 0.05 -19.15 0.05 -19.1 M-2.15 -7.35 Q-2.15 -9.25 -2.4 -10.5 L-2.4 -10.45 -3.8 -6.05 -3.8 -5.95 Q-3.65 -4.7 -2.5 -4.1 L-2.45 -4.15 -2.4 -4.2 Q-2.2 -5.65 -2.15 -7.35" fill="#686201" fill-opacity="0.972549" fill-rule="evenodd" stroke="none"/>
    <path d="M-0.2 -18.85 L-0.2 -18.9 -0.2 -19.0 0.0 -19.05 0.05 -19.1 Q0.2 -18.2 0.5 -17.45 L0.5 -17.4 Q0.4 -13.25 0.55 -9.45 0.65 -5.85 1.3 -3.3 L0.55 -3.5 -0.2 -3.5 -1.55 -3.4 -1.35 -4.35 -1.35 -4.45 -1.35 -4.5 -1.35 -4.9 -1.2 -5.9 -1.2 -5.95 Q-0.75 -9.95 -0.9 -14.2 L-0.85 -14.2 -0.85 -12.3 -0.85 -12.2 Q-0.65 -12.25 -0.6 -13.0 L-0.4 -16.1 -0.15 -18.85 -0.2 -18.85" fill="#c4b51d" fill-rule="evenodd" stroke="none"/>
    <path d="M4.45 -5.55 L4.15 -5.3 2.8 -4.35 2.75 -4.5 Q2.55 -7.1 2.6 -9.95 2.6 -11.25 2.05 -12.75 L2.15 -12.75 2.2 -12.75 4.4 -5.65 4.45 -5.55" fill="#484301" fill-opacity="0.972549" fill-rule="evenodd" stroke="none"/>
    <path d="M-1.35 -4.45 L-1.35 -4.35 -1.55 -3.4 -0.2 -3.5 0.55 -3.5 1.3 -3.3 Q0.65 -5.85 0.55 -9.45 0.4 -13.25 0.5 -17.4 L0.95 -15.85 0.95 -15.8 0.95 -15.7 0.9 -8.9 Q1.0 -6.45 1.35 -4.4 L1.5 -4.15 Q1.85 -3.8 1.65 -3.4 2.25 -3.0 2.7 -3.55 L2.75 -3.65 2.75 -3.7 4.5 -4.75 4.6 -4.75 6.6 -4.65 3.95 -4.35 3.95 -4.3 3.9 -4.25 2.2 -3.0 Q2.95 -2.05 3.55 -3.3 L3.6 -3.3 3.05 -2.5 2.8 -2.45 Q1.55 -3.2 -0.05 -3.3 L-0.9 -3.15 Q-1.7 -2.65 -1.7 -3.45 L-1.35 -4.45 M17.5 -3.15 L11.3 -1.1 Q7.9 -0.05 5.05 1.5 L5.05 1.4 Q4.65 0.9 4.6 0.1 L4.55 0.1 Q4.05 -0.35 3.9 -1.15 4.65 -0.75 5.85 -1.15 9.7 -2.35 13.35 -4.0 L14.0 -4.3 4.9 -4.2 4.75 -4.2 4.9 -4.35 Q9.25 -4.25 13.35 -4.45 L11.85 -4.55 7.3 -4.65 10.85 -4.6 14.55 -4.7 16.5 -4.65 18.0 -4.6 18.0 -4.55 14.0 -4.05 14.15 -4.0 14.2 -3.95 Q13.15 -3.4 11.95 -2.95 8.2 -1.6 4.15 -0.7 L4.9 0.45 4.9 0.5 6.3 0.55 Q6.95 0.15 7.8 -0.1 12.25 -1.55 16.25 -3.05 L18.25 -3.8 18.35 -3.8 18.3 -3.75 17.5 -3.15" fill="#b8a608" fill-rule="evenodd" stroke="none"/>
    <path d="M2.75 -3.65 L2.7 -3.55 Q2.25 -3.0 1.65 -3.4 1.85 -3.8 1.5 -4.15 L1.35 -4.4 Q1.0 -6.45 0.9 -8.9 L0.95 -15.7 0.95 -15.8 Q1.5 -13.65 1.4 -10.5 L1.3 -4.9 Q1.65 -3.8 2.55 -3.65 L2.75 -3.65" fill="#8c8100" fill-rule="evenodd" stroke="none"/>
    <path d="M4.65 -4.9 L18.8 -5.0 20.0 -4.75 19.1 -3.95 11.0 2.1 7.35 3.3 Q7.9 3.95 8.6 3.95 L8.65 3.95 8.65 4.0 7.95 4.5 7.95 4.45 6.75 3.85 6.7 3.85 6.15 3.45 6.1 3.4 5.5 2.7 Q7.6 1.3 10.2 0.65 L11.65 0.25 Q14.0 -0.3 15.7 -1.75 L15.7 -1.8 17.45 -3.1 17.5 -3.15 18.3 -3.75 18.35 -3.8 19.25 -4.4 19.25 -4.45 Q19.7 -4.85 18.7 -4.85 L4.65 -4.85 4.65 -4.9" fill="#524d04" fill-opacity="0.92941177" fill-rule="evenodd" stroke="none"/>
    <path d="M4.6 -4.75 L4.65 -4.8 4.65 -4.85 18.7 -4.85 Q19.7 -4.85 19.25 -4.45 L19.25 -4.5 18.0 -4.6 16.5 -4.65 14.55 -4.7 10.85 -4.6 7.3 -4.65 7.25 -4.65 6.6 -4.65 4.6 -4.75" fill="#8e8c06" fill-rule="evenodd" stroke="none"/>
    <path d="M3.8 -3.65 L3.8 -3.55 3.6 -3.3 3.55 -3.3 Q2.95 -2.05 2.2 -3.0 L3.9 -4.25 3.95 -4.3 4.0 -4.25 3.8 -3.8 3.8 -3.7 3.8 -3.65" fill="#efdf3a" fill-rule="evenodd" stroke="none"/>
    <path d="M4.75 -4.2 L4.65 -4.2 3.8 -3.65 3.8 -3.7 3.8 -3.8 4.0 -4.25 3.95 -4.3 3.95 -4.35 6.6 -4.65 7.25 -4.65 7.3 -4.65 11.85 -4.55 13.35 -4.45 Q9.25 -4.25 4.9 -4.35 L4.75 -4.2" fill="#c1b723" fill-rule="evenodd" stroke="none"/>
    <path d="M-4.55 -5.5 Q-3.85 -6.7 -3.35 -8.2 L-4.1 -4.9 Q-3.6 -3.7 -2.65 -3.65 L-2.55 -3.65 Q-1.65 -3.95 -1.65 -5.3 L-1.85 -12.25 -1.9 -12.25 -2.1 -11.95 Q-2.3 -11.05 -2.2 -11.85 L-1.9 -13.4 -1.4 -14.9 -1.4 -14.8 Q-1.4 -14.5 -1.55 -14.35 -1.5 -14.05 -1.2 -14.15 L-1.2 -14.05 -1.2 -5.95 -1.2 -5.9 -1.35 -4.9 -1.35 -4.5 -1.35 -4.45 -1.7 -3.45 Q-1.7 -2.65 -0.9 -3.15 L-0.05 -3.3 Q1.55 -3.2 2.8 -2.45 L3.05 -2.5 3.6 -3.3 3.8 -3.55 3.8 -3.65 4.65 -4.2 4.75 -4.2 4.9 -4.2 14.0 -4.3 13.35 -4.0 Q9.7 -2.35 5.85 -1.15 4.65 -0.75 3.9 -1.15 4.05 -0.35 4.55 0.1 L4.6 0.1 Q4.65 0.9 5.05 1.4 L5.05 1.5 Q7.9 -0.05 11.3 -1.1 L17.5 -3.15 17.45 -3.1 15.7 -1.8 15.7 -1.75 15.65 -1.75 5.9 1.7 5.9 1.8 5.2 2.6 Q5.5 3.2 6.05 3.45 L6.15 3.45 6.7 3.85 6.75 3.85 7.2 4.35 7.1 4.45 6.75 4.35 6.95 4.35 6.95 4.25 Q6.0 3.2 4.5 3.05 L4.55 3.1 Q5.15 3.9 6.1 4.2 L4.8 4.0 Q5.65 4.5 6.1 5.3 L6.15 5.4 Q5.4 5.75 6.2 6.7 L7.8 8.95 9.4 11.0 9.45 11.05 10.45 14.1 10.5 14.25 Q10.35 14.6 10.0 13.9 L9.45 13.1 9.2 12.65 7.85 11.0 Q7.2 10.1 7.05 9.45 L7.0 9.45 6.2 8.2 5.3 6.95 Q4.85 5.95 4.05 6.25 5.2 8.4 6.7 10.55 L9.05 13.6 10.2 15.1 10.85 16.1 11.2 16.4 11.7 17.95 11.7 18.0 11.85 18.55 11.95 18.95 Q10.15 17.6 8.85 15.65 L3.05 7.25 3.0 7.2 Q2.8 6.95 2.3 7.0 L1.85 7.2 Q0.6 7.95 0.3 9.7 0.15 10.45 -0.4 10.25 L-0.5 10.25 Q-0.45 9.85 -0.25 9.95 L-0.15 10.05 0.9 7.3 0.95 7.3 Q1.5 6.75 2.45 6.6 2.95 6.65 3.15 6.95 L8.85 15.5 Q9.6 16.65 10.8 17.3 L6.25 10.4 Q4.75 8.3 3.6 5.85 4.05 5.1 4.75 5.0 L5.15 5.1 5.4 4.95 Q5.25 4.45 4.5 4.1 L4.4 4.1 1.95 6.2 1.9 6.2 -1.2 6.45 Q-3.45 5.7 -4.5 3.7 -5.15 2.3 -4.7 0.6 L-3.95 -1.65 -3.95 -1.7 -5.1 -1.15 -7.4 -1.55 -9.45 -2.25 -13.55 -3.85 -9.35 -3.9 -11.85 -3.8 Q-10.9 -3.15 -9.85 -2.8 L-6.45 -1.7 -5.8 -1.55 Q-4.25 -1.55 -4.25 -2.6 L-4.4 -2.85 -4.4 -3.0 -4.55 -3.25 -4.55 -3.4 -4.5 -3.3 Q-4.1 -2.45 -3.15 -2.25 L-2.95 -2.2 Q-2.75 -3.1 -3.65 -3.65 L-4.1 -3.95 -4.1 -4.0 -4.4 -4.35 -4.35 -5.1 -4.35 -5.15 -4.7 -4.75 -4.7 -4.85 -4.7 -4.9 -4.55 -5.4 -4.55 -5.5 M6.15 -4.1 L4.3 -3.85 4.25 -3.8 Q3.8 -3.45 3.6 -2.8 L3.75 -1.85 3.8 -1.8 Q4.75 -1.4 6.0 -1.8 9.1 -2.95 12.35 -3.95 L10.1 -4.25 7.6 -4.1 7.5 -4.1 6.2 -4.1 6.15 -4.1 M2.45 -2.15 L1.25 -2.55 Q-1.7 -3.2 -3.5 -1.65 L-3.5 -1.6 Q-4.4 -0.6 -4.7 0.9 -4.8 3.95 -3.15 5.25 -2.15 6.0 -0.55 6.1 2.7 6.2 3.95 3.85 L4.2 2.2 Q4.45 -0.6 2.8 -2.0 L2.45 -2.15 M-9.35 -3.9 L-9.25 -3.9 -9.25 -3.85 -9.35 -3.9" fill="#908200" fill-rule="evenodd" stroke="none"/>
    <path d="M-4.55 -3.4 L-4.55 -3.25 Q-4.7 -3.55 -5.1 -3.6 -7.35 -3.9 -9.8 -3.65 -9.2 -3.2 -8.3 -2.95 -7.75 -2.7 -7.3 -2.55 L-5.2 -2.15 Q-4.4 -2.1 -4.4 -2.85 L-4.25 -2.6 Q-4.25 -1.55 -5.8 -1.55 L-6.45 -1.7 -9.85 -2.8 Q-10.9 -3.15 -11.85 -3.8 L-9.35 -3.9 -9.25 -3.85 -5.8 -3.8 -5.7 -3.8 -4.65 -3.5 -4.6 -3.45 -4.55 -3.4 M7.6 -4.1 L10.1 -4.25 12.35 -3.95 Q9.1 -2.95 6.0 -1.8 4.75 -1.4 3.8 -1.8 L3.75 -1.85 3.6 -2.8 Q3.8 -3.45 4.25 -3.8 L4.3 -3.85 6.15 -4.1 4.75 -3.85 4.7 -3.85 4.05 -3.15 Q3.95 -1.55 5.35 -2.0 L11.25 -3.95 7.65 -4.1 7.6 -4.1" fill="#706700" fill-rule="evenodd" stroke="none"/>
    <path d="M6.15 -4.1 L6.2 -4.1 7.5 -4.1 7.6 -4.1 7.65 -4.1 11.25 -3.95 5.35 -2.0 Q3.95 -1.55 4.05 -3.15 L4.7 -3.85 4.75 -3.85 6.15 -4.1 M4.5 -2.7 Q4.4 -2.25 4.8 -2.35 7.4 -2.85 9.9 -3.95 L9.8 -3.95 5.6 -3.85 5.55 -3.8 4.5 -2.7" fill="#554f00" fill-rule="evenodd" stroke="none"/>
    <path d="M2.45 -2.15 L2.8 -2.0 Q4.45 -0.6 4.2 2.2 L3.95 3.85 Q2.7 6.2 -0.55 6.1 -2.15 6.0 -3.15 5.25 -4.8 3.95 -4.7 0.9 -4.4 -0.6 -3.5 -1.6 L-3.5 -1.65 Q-1.7 -3.2 1.25 -2.55 L2.45 -2.15" fill="#6a5b00" fill-rule="evenodd" stroke="none"/>
    <path d="M4.5 -2.7 L5.55 -3.8 5.6 -3.85 9.8 -3.95 9.9 -3.95 Q7.4 -2.85 4.8 -2.35 4.4 -2.25 4.5 -2.7" fill="#423e00" fill-rule="evenodd" stroke="none"/>
    <path d="M7.0 -0.55 L12.1 -2.0 17.2 -3.45 Q17.9 -3.6 18.2 -4.2 L16.8 -4.05 12.8 -2.8 7.25 -1.4 4.5 -0.45 4.8 -0.1 5.3 -0.1 5.65 -0.15 6.65 -0.4 7.0 -0.55 M4.9 0.5 L4.9 0.45 4.15 -0.7 Q8.2 -1.6 11.95 -2.95 13.15 -3.4 14.2 -3.95 L14.15 -4.0 14.0 -4.05 18.0 -4.55 18.0 -4.6 19.25 -4.5 19.25 -4.45 19.25 -4.4 18.35 -3.8 18.25 -3.8 16.25 -3.05 7.05 0.05 6.4 0.35 4.9 0.5" fill="#e2cb11" fill-rule="evenodd" stroke="none"/>
    <path d="M5.65 -0.15 L5.3 -0.1 4.8 -0.1 4.5 -0.45 7.25 -1.4 12.8 -2.8 16.8 -4.05 18.2 -4.2 Q17.9 -3.6 17.2 -3.45 L12.1 -2.0 7.0 -0.55 9.35 -1.35 17.95 -4.05 Q15.2 -3.55 12.4 -2.65 L6.9 -1.0 6.8 -1.0 5.75 -0.75 5.75 -0.7 5.65 -0.7 4.65 -0.45 5.65 -0.15" fill="#fae833" fill-rule="evenodd" stroke="none"/>
    <path d="M7.0 -0.55 L6.65 -0.4 5.65 -0.15 4.65 -0.45 5.65 -0.7 5.75 -0.7 5.75 -0.65 4.95 -0.45 6.25 -0.4 11.7 -2.2 6.95 -1.0 6.9 -1.0 12.4 -2.65 Q15.2 -3.55 17.95 -4.05 L9.35 -1.35 7.0 -0.55" fill="#fff167" fill-rule="evenodd" stroke="none"/>
    <path d="M5.75 -0.7 L5.75 -0.75 6.8 -1.0 6.9 -1.0 6.95 -1.0 11.7 -2.2 6.25 -0.4 4.95 -0.45 5.75 -0.65 5.75 -0.7" fill="#fff485" fill-rule="evenodd" stroke="none"/>
    <path d="M6.15 3.45 L6.05 3.45 Q5.5 3.2 5.2 2.6 L5.9 1.8 5.9 1.7 15.65 -1.75 15.7 -1.75 Q14.0 -0.3 11.65 0.25 L10.2 0.65 Q7.6 1.3 5.5 2.7 L6.1 3.4 6.15 3.45" fill="#6e6600" fill-rule="evenodd" stroke="none"/>
    <path d="M16.25 -3.05 Q12.25 -1.55 7.8 -0.1 6.95 0.15 6.3 0.55 L4.9 0.5 6.4 0.35 7.05 0.05 16.25 -3.05" fill="#d5bb01" fill-rule="evenodd" stroke="none"/>
    <path d="M11.0 2.1 L11.0 2.15 8.65 3.95 8.6 3.95 Q7.9 3.95 7.35 3.3 L11.0 2.1" fill="#444002" fill-opacity="0.9647059" fill-rule="evenodd" stroke="none"/>
    <path d="M7.95 4.5 L7.9 4.5 7.65 4.75 7.95 5.7 7.95 5.8 Q7.55 5.45 6.95 5.2 6.5 5.05 6.45 5.95 L9.0 9.75 9.05 9.75 9.4 11.0 7.8 8.95 6.2 6.7 Q5.4 5.75 6.15 5.4 L6.1 5.3 Q5.65 4.5 4.8 4.0 L6.1 4.2 6.6 4.3 6.75 4.35 7.1 4.45 7.2 4.35 6.75 3.85 7.95 4.45 7.95 4.5" fill="#706800" fill-opacity="0.99607843" fill-rule="evenodd" stroke="none"/>
    <path d="M6.1 4.2 Q5.15 3.9 4.55 3.1 L4.5 3.05 Q6.0 3.2 6.95 4.25 L6.95 4.35 6.75 4.35 6.6 4.3 6.1 4.2" fill="#e0d025" fill-rule="evenodd" stroke="none"/>
    <path d="M-4.7 -4.75 L-4.35 -5.15 -4.35 -5.1 -4.4 -4.35 -4.45 -4.35 Q-4.55 -4.75 -4.8 -4.6 L-4.85 -4.6 -8.5 -4.3 -5.75 -3.85 -5.7 -3.8 -5.8 -3.8 -9.25 -3.85 -9.25 -3.9 -9.35 -3.9 -13.55 -3.85 -9.45 -2.25 -7.4 -1.55 -5.1 -1.15 -3.95 -1.7 -3.95 -1.65 -4.7 0.6 Q-5.15 2.3 -4.5 3.7 -3.45 5.7 -1.2 6.45 L1.9 6.2 1.95 6.2 4.4 4.1 4.5 4.1 Q5.25 4.45 5.4 4.95 L5.15 5.1 4.75 5.0 Q4.05 5.1 3.6 5.85 4.75 8.3 6.25 10.4 L10.8 17.3 Q9.6 16.65 8.85 15.5 L3.15 6.95 Q2.95 6.65 2.45 6.6 1.5 6.75 0.95 7.3 L0.9 7.3 -0.15 10.05 -0.25 9.95 Q-0.45 9.85 -0.5 10.25 L-0.55 10.25 -3.35 12.2 -3.3 12.1 -0.65 9.75 Q-0.15 8.05 -0.95 7.0 -2.1 7.15 -2.65 7.9 L-8.35 16.4 -8.35 16.5 -8.35 16.55 -9.65 17.55 -7.95 14.9 -2.1 6.6 -2.15 6.55 Q-2.65 5.9 -3.55 5.6 L-4.75 7.3 -10.4 15.85 Q-10.5 15.25 -10.25 14.6 -9.6 12.95 -9.5 11.35 L-10.85 15.2 -10.85 15.1 -10.85 14.9 -7.7 5.3 -7.65 5.3 Q-8.05 7.4 -8.75 9.7 -9.45 11.75 -9.8 14.25 -7.0 10.25 -4.55 6.05 L-4.35 5.85 Q-4.05 4.45 -5.2 4.15 L-5.8 4.15 -6.05 4.25 -5.7 4.05 Q-4.85 3.95 -4.85 3.35 -4.9 3.25 -5.0 3.25 L-7.1 3.95 Q-6.9 3.75 -6.55 3.7 -5.6 3.5 -5.35 2.6 -5.45 1.75 -6.1 1.5 L-15.9 -1.9 -16.0 -1.9 -16.4 -2.2 -16.4 -2.25 -17.1 -2.8 -6.8 0.6 Q-5.9 0.9 -5.25 1.5 L-4.7 -0.55 -4.55 -0.85 -4.5 -1.0 -6.4 -1.15 -14.25 -3.55 Q-15.25 -3.85 -14.45 -4.05 L-14.15 -4.05 -14.0 -4.05 -14.3 -4.2 -15.25 -4.35 -17.85 -4.6 -17.9 -4.6 -19.4 -4.6 -19.4 -4.5 -19.45 -4.55 -19.45 -4.7 Q-12.4 -4.5 -5.65 -4.65 L-4.7 -4.75" fill="#af9d04" fill-rule="evenodd" stroke="none"/>
    <path d="M7.95 5.8 L9.05 9.2 9.05 9.3 9.05 9.35 8.95 9.35 9.05 9.7 9.05 9.75 9.0 9.75 6.45 5.95 Q6.5 5.05 6.95 5.2 7.55 5.45 7.95 5.8" fill="#524c01" fill-opacity="0.98039216" fill-rule="evenodd" stroke="none"/>
    <path d="M11.8 17.75 L12.4 19.55 7.95 16.5 -0.2 10.5 -4.3 13.65 -12.3 19.85 -12.3 20.0 -12.35 20.0 -12.4 19.55 Q-11.95 18.45 -11.65 17.15 L-11.6 17.15 -11.6 17.55 -11.6 17.6 -11.6 17.7 -12.1 19.15 Q-12.05 19.6 -11.55 19.05 L-11.55 19.0 -11.25 18.8 -11.25 18.75 -9.65 17.6 -9.65 17.55 -8.35 16.55 -8.35 16.5 Q-4.55 13.2 -0.45 10.3 L-0.4 10.25 Q0.15 10.45 0.3 9.7 0.6 7.95 1.85 7.2 L2.3 7.0 Q2.8 6.95 3.0 7.2 L3.05 7.25 8.85 15.65 Q10.15 17.6 11.95 18.95 L11.85 18.55 11.7 18.0 11.8 17.85 11.8 17.75 M2.45 10.0 L2.5 10.1 2.5 10.2 Q2.85 10.1 2.4 9.65 2.1 9.25 1.65 9.45 L1.05 9.55 1.05 9.6 3.05 11.4 2.6 10.65 Q2.2 10.35 2.45 10.0 M2.05 10.8 Q1.45 10.15 0.65 10.1 L0.7 10.15 7.35 15.5 2.7 11.4 2.05 10.8" fill="#5b5101" fill-opacity="0.9764706" fill-rule="evenodd" stroke="none"/>
    <path d="M2.45 10.0 Q2.2 10.35 2.6 10.65 L3.05 11.4 1.05 9.6 1.05 9.55 1.65 9.45 Q2.1 9.25 2.4 9.65 2.85 10.1 2.5 10.2 L2.5 10.1 2.45 10.0" fill="#443900" fill-rule="evenodd" stroke="none"/>
    <path d="M2.05 10.8 L2.7 11.4 7.35 15.5 0.7 10.15 0.65 10.1 Q1.45 10.15 2.05 10.8" fill="#8a7b02" fill-rule="evenodd" stroke="none"/>
    <path d="M11.2 16.4 L10.85 16.1 10.2 15.1 9.05 13.6 6.7 10.55 Q5.2 8.4 4.05 6.25 4.85 5.95 5.3 6.95 L6.2 8.2 7.0 9.45 7.05 9.45 Q7.2 10.1 7.85 11.0 L9.2 12.65 9.45 13.1 10.0 13.9 Q10.35 14.6 10.5 14.25 L11.15 16.35 11.2 16.4" fill="#7b7000" fill-rule="evenodd" stroke="none"/>
    <path d="M9.05 9.3 L11.8 17.7 11.8 17.75 11.8 17.85 11.7 18.0 11.7 17.95 11.2 16.4 11.15 16.35 10.5 14.25 10.45 14.1 9.45 11.05 9.4 11.0 9.05 9.75 9.05 9.7 8.95 9.35 9.05 9.35 9.05 9.3" fill="#514d06" fill-opacity="0.8901961" fill-rule="evenodd" stroke="none"/>
    <path d="M-1.1 -15.8 L-1.1 -15.85 -1.1 -15.95 -0.2 -18.75 -0.2 -18.85 -0.15 -18.85 -0.4 -16.1 -0.6 -13.0 Q-0.65 -12.25 -0.85 -12.2 L-0.85 -12.3 -0.85 -14.2 -0.85 -14.35 Q-0.9 -15.05 -1.2 -15.45 L-1.1 -15.7 -1.1 -15.8" fill="#ddc80b" fill-rule="evenodd" stroke="none"/>
    <path d="M-1.4 -14.9 L-1.4 -15.0 -1.4 -15.05 Q-1.2 -15.35 -1.15 -15.8 L-1.1 -15.8 -1.1 -15.7 -1.2 -15.45 Q-0.9 -15.05 -0.85 -14.35 L-0.85 -14.2 -0.9 -14.2 Q-0.75 -9.95 -1.2 -5.95 L-1.2 -14.05 -1.2 -14.15 Q-1.5 -14.05 -1.55 -14.35 -1.4 -14.5 -1.4 -14.8 L-1.4 -14.9" fill="#c2ad00" fill-rule="evenodd" stroke="none"/>
    <path d="M-16.45 -3.85 L-16.45 -3.9 -17.75 -3.95 Q-15.4 -2.75 -12.65 -1.85 -10.75 -1.25 -8.7 -0.75 L-8.45 -0.7 -8.25 -0.6 -5.85 0.45 -5.4 0.65 Q-5.25 0.65 -5.25 0.35 -4.85 -0.15 -5.2 -0.5 L-5.5 -0.6 Q-8.45 -1.2 -11.1 -2.15 L-16.45 -3.85 M-19.4 -4.5 L-19.4 -4.6 -17.9 -4.6 -17.85 -4.6 -7.1 -1.05 -4.65 -0.85 -4.7 -0.8 -4.7 -0.55 -5.25 1.5 Q-5.9 0.9 -6.8 0.6 L-17.1 -2.8 -17.1 -2.85 -19.4 -4.5" fill="#e1ca0f" fill-rule="evenodd" stroke="none"/>
    <path d="M-8.7 -0.75 Q-10.75 -1.25 -12.65 -1.85 -15.4 -2.75 -17.75 -3.95 L-16.45 -3.9 -16.45 -3.85 -16.55 -3.85 -17.25 -3.85 Q-13.2 -2.1 -8.7 -0.75 M-5.5 -0.6 L-5.2 -0.5 Q-4.85 -0.15 -5.25 0.35 -5.25 0.65 -5.4 0.65 L-5.85 0.45 -8.25 -0.6 -6.75 -0.2 -5.35 0.35 -5.35 0.2 Q-4.75 -0.4 -5.5 -0.6" fill="#f7e62f" fill-rule="evenodd" stroke="none"/>
    <path d="M-8.7 -0.75 Q-13.2 -2.1 -17.25 -3.85 L-16.55 -3.85 -16.45 -3.85 -11.1 -2.15 Q-8.45 -1.2 -5.5 -0.6 -4.75 -0.4 -5.35 0.2 L-5.35 0.35 -6.75 -0.2 -8.25 -0.6 -8.45 -0.7 -8.7 -0.75 M-6.5 -0.2 Q-5.7 0.1 -5.25 -0.2 L-5.4 -0.45 Q-11.15 -1.85 -16.4 -3.7 -12.95 -2.15 -9.1 -1.0 L-6.5 -0.2" fill="#feee4c" fill-rule="evenodd" stroke="none"/>
    <path d="M-19.9 -4.6 L-20.0 -4.6 -20.0 -4.7 -20.0 -4.9 -5.95 -5.0 -4.8 -5.0 -5.85 -4.85 -19.9 -4.85 -19.9 -4.7 -19.9 -4.6" fill="#3d3f1e" fill-opacity="0.3647059" fill-rule="evenodd" stroke="none"/>
    <path d="M-16.55 -2.05 L-16.6 -2.1 -19.9 -4.6 -19.9 -4.7 -19.9 -4.85 -5.85 -4.85 -4.8 -5.0 -4.8 -5.1 -4.6 -5.5 -4.55 -5.5 -4.55 -5.4 -4.7 -4.9 -4.7 -4.85 -4.7 -4.75 -5.65 -4.65 Q-12.4 -4.5 -19.45 -4.7 L-19.45 -4.55 -19.4 -4.5 -17.1 -2.85 -17.1 -2.8 -16.4 -2.25 -16.4 -2.2 -16.45 -2.2 -16.55 -2.2 -16.55 -2.15 -16.55 -2.05" fill="#6e6b01" fill-opacity="0.98039216" fill-rule="evenodd" stroke="none"/>
    <path d="M-8.5 4.0 L-8.55 4.0 -16.55 -2.05 -16.55 -2.15 -16.55 -2.2 -16.45 -2.2 -16.4 -2.2 -16.0 -1.9 -15.9 -1.9 Q-13.6 -0.2 -10.4 0.6 L-7.75 1.3 Q-6.8 1.55 -6.05 2.05 -5.75 2.2 -5.8 2.5 -6.65 3.9 -8.5 4.0" fill="#4d4801" fill-opacity="0.98039216" fill-rule="evenodd" stroke="none"/>
    <path d="M-17.85 -4.6 L-15.25 -4.35 -14.3 -4.2 -14.0 -4.05 -14.15 -4.05 -14.45 -4.05 Q-15.25 -3.85 -14.25 -3.55 L-6.4 -1.15 -4.5 -1.0 -4.55 -0.85 -4.7 -0.55 -4.7 -0.8 -4.65 -0.85 -7.1 -1.05 -17.85 -4.6" fill="#c2ae01" fill-rule="evenodd" stroke="none"/>
    <path d="M-2.15 -7.35 Q-2.2 -5.65 -2.4 -4.2 L-2.45 -4.15 -2.5 -4.1 Q-3.65 -4.7 -3.8 -5.95 L-3.8 -6.05 -2.4 -10.45 -2.4 -10.5 Q-2.15 -9.25 -2.15 -7.35" fill="#464100" fill-rule="evenodd" stroke="none"/>
    <path d="M-4.1 -3.95 L-3.65 -3.65 Q-2.75 -3.1 -2.95 -2.2 L-3.15 -2.25 Q-4.1 -2.45 -4.5 -3.3 -4.05 -2.75 -3.4 -2.45 -3.3 -3.0 -3.95 -3.5 L-4.1 -3.95 M-5.7 -3.8 L-5.75 -3.85 -8.5 -4.3 -4.85 -4.6 -4.8 -4.6 -4.8 -4.55 Q-5.35 -4.5 -5.55 -4.1 L-4.65 -3.5 -5.7 -3.8" fill="#c9b91b" fill-rule="evenodd" stroke="none"/>
    <path d="M-6.5 -0.2 L-9.1 -1.0 Q-12.95 -2.15 -16.4 -3.7 -11.15 -1.85 -5.4 -0.45 L-5.25 -0.2 Q-5.7 0.1 -6.5 -0.2" fill="#fff481" fill-rule="evenodd" stroke="none"/>
    <path d="M-4.55 -3.25 L-4.4 -3.0 -4.4 -2.85 Q-4.4 -2.1 -5.2 -2.15 L-7.3 -2.55 Q-7.75 -2.7 -8.3 -2.95 -9.2 -3.2 -9.8 -3.65 -7.35 -3.9 -5.1 -3.6 -4.7 -3.55 -4.55 -3.25" fill="#544e00" fill-rule="evenodd" stroke="none"/>
    <path d="M-4.4 -4.35 L-4.1 -4.0 -4.1 -3.95 -3.95 -3.5 Q-3.3 -3.0 -3.4 -2.45 -4.05 -2.75 -4.5 -3.3 L-4.55 -3.4 -4.6 -3.45 -4.65 -3.5 -5.55 -4.1 Q-5.35 -4.5 -4.8 -4.55 L-4.8 -4.6 Q-4.55 -4.75 -4.45 -4.35 L-4.4 -4.35" fill="#f9ec53" fill-rule="evenodd" stroke="none"/>
    <path d="M-7.1 3.95 L-5.0 3.25 Q-4.9 3.25 -4.85 3.35 -4.85 3.95 -5.7 4.05 L-6.05 4.25 -6.1 4.25 -7.05 4.6 -7.1 4.6 Q-7.65 4.85 -7.65 4.25 L-7.1 4.0 -7.1 3.95" fill="#edd928" fill-rule="evenodd" stroke="none"/>
    <path d="M-11.6 17.15 L-11.6 17.05 -11.6 16.9 -8.3 5.95 -7.85 4.65 Q-7.6 5.35 -7.05 4.65 L-7.05 4.6 -6.1 4.25 -6.05 4.25 -5.8 4.15 -5.2 4.15 Q-4.05 4.45 -4.35 5.85 L-4.55 6.05 Q-7.0 10.25 -9.8 14.25 -9.45 11.75 -8.75 9.7 -8.05 7.4 -7.65 5.3 L-7.7 5.3 -10.85 14.9 -10.85 15.1 -10.85 15.2 -10.9 15.2 -11.6 17.6 -11.6 17.55 -11.6 17.15 M-7.1 5.0 L-7.1 5.05 Q-8.15 7.7 -8.85 10.65 L-8.9 10.8 -8.9 11.0 -7.05 8.55 -5.25 5.8 Q-4.95 5.2 -5.2 4.75 L-5.2 4.7 Q-6.3 4.4 -7.1 5.0" fill="#786f01" fill-opacity="0.98039216" fill-rule="evenodd" stroke="none"/>
    <path d="M-7.85 4.65 L-7.9 4.6 -8.5 4.0 Q-6.65 3.9 -5.8 2.5 -5.75 2.2 -6.05 2.05 -6.8 1.55 -7.75 1.3 L-10.4 0.6 Q-13.6 -0.2 -15.9 -1.9 L-6.1 1.5 Q-5.45 1.75 -5.35 2.6 -5.6 3.5 -6.55 3.7 -6.9 3.75 -7.1 3.95 L-7.1 4.0 -7.65 4.25 Q-7.65 4.85 -7.1 4.6 L-7.05 4.6 -7.05 4.65 Q-7.6 5.35 -7.85 4.65" fill="#837800" fill-opacity="0.99607843" fill-rule="evenodd" stroke="none"/>
    <path d="M-7.1 5.0 Q-6.3 4.4 -5.2 4.7 L-5.2 4.75 Q-4.95 5.2 -5.25 5.8 L-7.05 8.55 -8.9 11.0 -8.9 10.8 -8.85 10.65 Q-8.15 7.7 -7.1 5.05 L-7.1 5.0 M-5.95 5.55 L-5.95 5.5 Q-5.5 5.05 -6.25 5.2 L-6.35 5.25 Q-7.6 5.65 -7.7 7.25 -7.55 7.55 -7.35 7.15 L-6.85 6.25 -6.8 6.25 -5.95 5.55" fill="#554e00" fill-rule="evenodd" stroke="none"/>
    <path d="M-5.95 5.55 L-6.8 6.25 -6.85 6.25 -7.35 7.15 Q-7.55 7.55 -7.7 7.25 -7.6 5.65 -6.35 5.25 L-6.25 5.2 Q-5.5 5.05 -5.95 5.5 L-5.95 5.55" fill="#443f00" fill-rule="evenodd" stroke="none"/>
    <path d="M-6.5 10.8 L-6.55 10.85 -10.1 16.15 -10.1 16.25 -8.15 13.75 Q-7.1 12.3 -6.5 10.8 M-4.25 7.05 L-3.95 6.7 -3.85 6.6 Q-4.2 7.95 -5.05 9.35 L-10.75 17.8 Q-11.2 18.45 -11.4 17.95 L-10.65 16.8 -10.6 16.75 -10.6 16.65 -5.0 7.95 -4.25 7.05" fill="#feee4a" fill-rule="evenodd" stroke="none"/>
    <path d="M-6.5 10.8 Q-7.1 12.3 -8.15 13.75 L-10.1 16.25 -10.1 16.15 -6.55 10.85 -6.5 10.8" fill="#fff277" fill-rule="evenodd" stroke="none"/>
    <path d="M-4.4 12.75 L-4.45 12.8 Q-5.35 13.65 -6.25 14.1 -4.15 10.65 -1.65 7.55 -1.5 7.3 -1.05 7.3 -0.3 8.4 -0.9 9.9 L-1.2 10.1 -0.8 9.3 Q-0.7 8.15 -1.2 7.65 L-1.25 7.65 Q-3.35 10.15 -5.1 12.9 -4.85 13.15 -4.45 12.75 L-4.4 12.75" fill="#675f00" fill-rule="evenodd" stroke="none"/>
    <path d="M-4.4 12.75 L-4.45 12.75 Q-4.85 13.15 -5.1 12.9 -3.35 10.15 -1.25 7.65 L-1.2 7.65 Q-0.7 8.15 -0.8 9.3 L-1.2 10.1 -1.2 10.15 -4.4 12.75" fill="#494400" fill-rule="evenodd" stroke="none"/>
    <path d="M-0.5 10.25 L-0.4 10.25 -0.45 10.3 Q-4.55 13.2 -8.35 16.5 L-8.35 16.4 -2.65 7.9 Q-2.1 7.15 -0.95 7.0 -0.15 8.05 -0.65 9.75 L-3.3 12.1 -3.35 12.2 -0.55 10.25 -0.5 10.25 M-1.2 10.1 L-0.9 9.9 Q-0.3 8.4 -1.05 7.3 -1.5 7.3 -1.65 7.55 -4.15 10.65 -6.25 14.1 -5.35 13.65 -4.45 12.8 L-4.4 12.75 -1.2 10.15 -1.2 10.1" fill="#887d00" fill-rule="evenodd" stroke="none"/>
    <path d="M-10.85 15.2 L-9.5 11.35 Q-9.6 12.95 -10.25 14.6 -10.5 15.25 -10.4 15.85 L-4.75 7.3 -3.55 5.6 Q-2.65 5.9 -2.15 6.55 L-2.1 6.6 -7.95 14.9 -9.65 17.55 -9.65 17.6 -11.25 18.75 -11.25 18.65 -11.25 18.55 -5.4 10.2 -3.15 6.3 -3.2 6.2 -3.25 6.1 Q-4.0 6.15 -4.25 7.0 L-4.25 7.05 -5.0 7.95 -10.6 16.65 -10.6 16.75 -10.7 16.75 Q-11.4 17.35 -11.7 18.35 L-11.6 18.95 -11.55 19.0 -11.55 19.05 Q-12.05 19.6 -12.1 19.15 L-11.6 17.7 -11.6 17.6 -10.9 15.2 -10.85 15.2" fill="#dec80f" fill-rule="evenodd" stroke="none"/>
    <path d="M-4.25 7.05 L-4.25 7.0 Q-4.0 6.15 -3.25 6.1 L-3.2 6.2 -3.15 6.3 -5.4 10.2 -11.25 18.55 -11.25 18.65 -11.25 18.75 -11.25 18.8 -11.55 19.0 -11.6 18.95 -11.7 18.35 Q-11.4 17.35 -10.7 16.75 L-10.6 16.75 -10.65 16.8 -11.4 17.95 Q-11.2 18.45 -10.75 17.8 L-5.05 9.35 Q-4.2 7.95 -3.85 6.6 L-3.95 6.7 -4.25 7.05" fill="#f6e42b" fill-rule="evenodd" stroke="none"/>
  </g>
</svg>
